<?xml version="1.0" standalone="no"?>
<!DOCTYPE svg PUBLIC "-//W3C//DTD SVG 1.1//EN" "http://www.w3.org/Graphics/SVG/1.1/DTD/svg11.dtd">
<svg xmlns="http://www.w3.org/2000/svg">
<metadata>Generated by Fontastic.me</metadata>
<defs>
<font id="grapholiteicons" horiz-adv-x="512">
<font-face font-family="grapholiteicons" units-per-em="512" ascent="480" descent="-32"/>
<missing-glyph horiz-adv-x="512" />

<glyph glyph-name="connectadorner" unicode="&#97;" d="M215 95l-177 76 177 76 0-67 189 0 0-19-189 0z m76 152l0 66-190 0 0 19 190 0 0 66 177-75z"/>
<glyph glyph-name="copyadorner" unicode="&#98;" d="M177 62l0 294c0 16 13 30 29 30l161 0 88-90 0-234c0-17-13-30-30-30l-219 0c-16 0-29 13-29 30z m252 0l0 197-88 0c-7 0-13 6-13 13l0 88-122 0c-2 0-4-1-4-4l0-294c0-3 2-5 4-5l219 0c2 0 4 2 4 5z m-378 75l0 295c0 16 12 29 29 29l154 0c3 0 6-1 9-3l28-30-18-18-25 26-148 0c-2 0-4-1-4-4l0-295c0-2 2-4 4-4l72 0 0-25-72 0c-17 0-29 13-29 29z m378 148l0 0-73 75-2 0 0-75z"/>
<glyph glyph-name="deleteadorner" unicode="&#99;" d="M95 88l-13 14 157 157-157 158 13 13 158-157 157 157 14-13-158-158 158-157-14-14-157 158z"/>
<glyph glyph-name="rotateadorner" unicode="&#100;" d="M234 99c-83 10-144 81-142 163l0 4-67 7 96 167 55-184-65 7 0-2c-2-72 52-134 125-143 78-9 148 47 158 125 9 78-47 148-125 157l2 19c89-10 152-90 141-179-10-88-90-151-178-141z"/>
<glyph glyph-name="smarttagadorner" unicode="&#101;" d="M275 20l-15 8-17 45-31 4-34-41-16-3-66 41-4 16 23 45-17 20-52-6-14 10-19 77 8 15 50 17 0 25-42 35-2 16 40 65 15 5 51-22 15 15-6 53 10 14 71 19 15-7 22-46 28-5 40 41 16 2 58-39 5-15-17-46 12-21 57 5 14-9 19-71-7-15-52-23-5-25 46-34 3-16-38-66-16-5-51 24-22-18 6-51-10-14z m4 27l50 14-5 47 5 11 33 27 13 2 48-22 27 46-43 32-5 12 7 39 8 9 48 22-14 50-55-5-12 6-19 33-1 11 16 43-41 27-38-39-11-3-40 7-9 7-21 43-51-14 5-49-4-10-26-25-14-3-48 21-28-46 38-32 4-9 0-40-9-12-47-16 14-56 48 5 11-4 26-31 2-14-22-42 47-28 31 38 12 4 45-6 10-8z m-75 100c-15 6-27 15-38 25-10 11-19 24-25 38-6 14-9 29-9 46 0 16 3 31 9 46 6 14 15 26 25 37 11 11 23 19 38 25 14 7 29 10 46 10 16 0 31-3 46-10 14-6 26-14 37-25 11-11 19-23 25-37 6-15 10-30 10-46 0-17-4-32-10-46-6-14-14-27-25-38-11-10-23-19-37-25-15-6-30-9-46-9-17 0-32 3-46 9z m82 23c11 5 21 12 29 20 8 9 15 18 20 30 5 11 7 23 7 36 0 12-2 24-7 36-5 11-12 21-20 29-8 8-18 15-29 20-12 5-24 7-36 7-13 0-25-2-36-7-12-5-21-12-30-20-8-8-15-18-20-29-5-11-7-23-7-36 0-13 2-25 7-36 5-12 12-21 20-30 9-8 18-15 30-20 11-4 23-7 36-7 12 0 24 3 36 7z"/>
<glyph glyph-name="capturepicture" unicode="&#102;" d="M39 124l0 201-13 0c-5 0-9 4-9 9 0 5 4 9 9 9l13 0 0 4c0 30 23 55 52 57 3 11 10 19 19 19l41 0c9 0 16-8 18-19l59 0 28 33 98 0 35-33 27 0c32 0 58-25 58-57l0-4 14 0c5 0 9-4 9-9 0-5-4-9-9-9l-14 0 0-201c0-32-26-58-58-58l-320 0c-31 0-57 26-57 58z m422 0l0 223c0 25-20 45-45 45l-32 0-35 33-87 0-28-33-76 0 0 6c-1 7-5 12-7 12l-41 0c-3 0-6-5-7-12l0-2 0-4-6 0c-25 0-46-20-46-45l0-223c0-25 21-45 45-45l320 0c25 0 45 20 45 45z m-266 137c0 64 52 116 116 116 64 0 116-52 116-116 0-64-52-116-116-116-64 0-116 52-116 116z m222 0c0 58-48 105-106 105-58 0-105-47-105-105 0-58 47-105 105-105 58 0 106 47 106 105z m-198 0c0 51 41 92 92 92 50 0 92-41 92-92 0-50-42-92-92-92-51 0-92 42-92 92z m171 0c0 44-36 80-79 80-44 0-80-36-80-80 0-44 36-79 80-79 43 0 79 35 79 79z m-115 0c0 20 16 37 36 37 21 0 37-17 37-37 0-20-16-37-37-37-20 0-36 17-36 37z m-171 101l0 7c0 6 5 11 11 11l30 0c6 0 11-5 11-11l0-7c0-6-5-12-11-12l-30 0c-6 0-11 6-11 12z"/>
<glyph glyph-name="connect" unicode="&#103;" d="M318 79l0 64-72 0c-62 3-71 38-70 74l2 119-2 13c-6 30-27 44-60 43l-90 0 0 18 90 0 8 0c42-1 70-27 72-73l-2-121c0-27 2-52 53-55l71 0 0 64 170-73z"/>
<glyph glyph-name="connectionpoint" unicode="&#104;" d="M301 12l-40 88-55-54 0 254 183-183-78 0 38-83z m8 23l17 7-42 92 64 0-125 125 0-172 43 42z m-240 194l0 34c0 5 3 9 8 9 5 0 9-4 9-9l0-25 25 0c5 0 9-4 9-9 0-5-4-8-9-8l-34 0c-5 0-8 3-8 8z m240 0c0 5 3 9 8 9l26 0 0 25c0 5 4 9 8 9 5 0 9-4 9-9l0-34c0-5-4-8-9-8l-34 0c-5 0-8 3-8 8z m-187 37c-3 3-3 9 0 12l80 80-80 79c-3 4-3 9 0 12 4 4 9 4 13 0l79-79 80 79c3 4 9 4 12 0 3-3 3-8 0-12l-80-79 80-80c3-3 3-9 0-12-3-3-9-3-12 0l-80 80-79-80c-4-3-9-3-13 0z m-53 186l0 34c0 5 3 9 8 9l34 0c5 0 9-4 9-9 0-4-4-8-9-8l-25 0 0-26c0-5-4-9-9-9-5 0-8 4-8 9z m274 0l0 26-26 0c-5 0-8 4-8 8 0 5 3 9 8 9l34 0c5 0 9-4 9-9l0-34c0-5-4-9-9-9-4 0-8 4-8 9z"/>
<glyph glyph-name="draw" unicode="&#105;" d="M20 18c-4 5-4 12 0 16l42 42-13 13 44 44-11 12 300 300-23 3-112-112c-4-4-12-4-16 0-4 5-4 12 0 16l116 116c3 3 6 4 10 4l44-6c1 0 1 0 2 0l23 23 66-65-345-345-12 12-44-45-13 13-41-41c-5-4-12-4-17 0z m71 61l28 28-10 10-28-28z m57 34l196 196-33 33-196-196z m212 212l99 99-33 33-99-99z"/>
<glyph glyph-name="ellipse" unicode="&#106;" d="M158 56c-111 55-155 189-100 299 55 110 189 154 299 99 110-55 154-189 100-299-55-110-189-154-299-99z m283 107c51 101 10 225-92 276-101 51-225 9-276-92-51-102-9-225 92-276 102-51 225-10 276 92z"/>
<glyph glyph-name="eyedropper" unicode="&#107;" d="M313 233l-8 9-173-172c-10-10-20-13-31-16-11-3-24-7-42-20-2-1-5-1-7 1-2 3-1 6 1 7 20 14 34 19 45 22 6 2 10 3 15 5 4 2 8 4 12 8l172 172-47 47-172-172c-8-8-10-16-13-27-3-11-7-25-21-45-2-2-5-3-8-1-2 2-2 5-1 7 13 18 17 31 20 42 2 5 3 10 5 16 3 5 6 10 11 15l172 173-7 7c-9 9-10 22-2 29 7 7 20 7 29-2l2-3 144 144c21 21 53 21 73 1 20-20 20-53 0-73l-144-144 3-3c8-8 9-21 1-28l0-1c-7-7-20-6-29 2z m-66 12l0 0c0 0 0 0 0 0z m0 0l0 0c0 0 0 0 0 0z"/>
<glyph glyph-name="freehand" unicode="&#108;" d="M18 29c43 93 47 97 48 98l349 349c8 8 21 8 28 0l39-38c8-8 8-21 0-29l-349-349c-1-1-5-5-102-44-4-2-8-1-11 2-3 3-4 7-2 11z m450 394l-39 39-43-43 38-39z m-58-57l-39 39-284-285 39-39z m-301-296l-34 34c-6-13-17-36-28-60 25 10 49 20 62 26z"/>
<glyph glyph-name="insertpicture" unicode="&#109;" d="M17 67l0 383c0 10 9 19 20 19l442 0c11 0 20-9 20-19l0-383c0-11-9-20-20-20l-442 0c-11 0-20 9-20 20z m461 1l0 87-439 0c0 0-1 0-1 0l0-87z m-439 108l90 0c10 38 44 153 90 153 9 0 17-4 25-12 32-32 51-80 62-113 9 26 26 58 50 64 3 1 6 1 8 1 33 0 51-48 68-91l1-2 45 0 0 273-440 0 0-274c0 1 1 1 1 1z m190 127c-3 4-7 5-10 5-21 0-51-66-69-132l142 0c-6 26-26 90-63 127z m135-54c-1 0-2-1-3-1-19-5-35-43-43-72l93 0c-12 30-29 73-47 73z m-279 114c0 25 21 46 47 46 26 0 47-21 47-46 0-26-21-47-47-47-26 0-47 21-47 47z m275-36c-6-1-12-2-18-2-29 0-59 10-59 33 0 15 14 26 37 31 5 9 15 15 26 15l6 0c4 0 8-1 12-3 7 2 14 3 22 3 32 0 57-18 57-41 0-23-25-41-57-41-9 0-18 2-26 5z m-192 36c0 20-16 36-36 36-20 0-36-16-36-36 0-20 16-37 36-37 20 0 36 17 36 37z m265 0c0 17-21 30-47 30-7 0-14-1-21-3l-2 0-2 1c-3 1-6 2-9 2l-6 0c-8 0-15-4-18-11l-1-3-3 0c-19-3-31-11-31-21 0-15 25-23 49-23 6 0 12 1 18 2l1 0 1 0c7-3 15-4 24-4 26 0 47 13 47 30z"/>
<glyph glyph-name="line" unicode="&#110;" d="M37 34c-4 4-4 9 0 13l428 428c4 4 9 4 12 0 4-3 4-9 0-12l-428-429c-3-3-9-3-12 0z"/>
<glyph glyph-name="manipulate" unicode="&#111;" d="M246 10c-9 3-17 6-25 11-8 4-16 9-23 15-7 6-14 12-21 19l-1 1c-8 12-16 24-26 37-4 5-8 11-13 17-3 4-24 15-31 23l-16 20-4 3c-2 2-3 4-4 5-2 4-4 8-4 13l0 3c0 4 0 7 2 11 1 3 3 6 5 9 3 3 6 5 9 6 3 2 7 3 11 4l3 0c3 0 7-1 10-2l4-1c2-1 4-2 6-3 4-2 8-5 12-8 5-2 9-6 14-9 4-3 9-7 13-10l10-8 0 237c0 5 0 9 1 13 0 5 2 9 4 13 1 4 4 8 8 10 4 4 9 5 15 5 5 0 10-1 14-4 4-3 7-7 9-11 2-4 3-8 4-13 1-4 1-8 1-13l0-164 2-3 0-1 1 3 0 79c0 4 0 8 1 12 1 5 2 9 4 13 2 3 5 7 9 9 4 3 9 4 14 4 5 0 10-1 14-4 4-2 7-6 9-9 2-4 4-8 5-12 0-5 1-9 1-13l0-79 1-2 1 4 0 57c0 5 1 9 1 13 1 4 3 8 5 12 2 4 5 7 8 9 5 3 9 5 15 5 5 0 10-2 14-4 4-3 6-6 9-10 2-4 3-8 4-12 1-4 1-8 1-13l0-70 2 1 1 2 0 47c0 4 0 8 1 12 1 4 2 8 4 12 2 4 5 7 9 10 4 3 9 5 14 5 5 0 10-2 14-4 4-3 7-6 9-10 2-4 3-8 4-12 1-4 1-8 1-13l0-144c0-22-4-26-10-42-7-17-16-32-29-44-12-13-26-23-42-30-17-7-34-11-53-11-11 0-21 2-31 4z m77 23c14 6 27 14 37 25 10 11 19 24 25 40 6 17 9 17 9 35l0 144c0 4 0 7-1 10 0 2-1 5-2 7-1 1-2 2-3 3-1 1-3 2-5 2-2 0-3-1-4-2-2-1-3-2-4-4-1-2-2-5-2-7-1-3-1-6-1-9l0-49-1-4c-1-2-2-4-3-6-1-2-3-3-4-5-3-2-7-3-10-3-5 0-9 1-13 4-1 1-2 2-2 3-2 1-3 3-3 6-1 1-1 3-1 5l0 69c0 3 0 7-1 10 0 2-1 5-2 6-1 2-2 3-4 4-1 1-2 1-4 1-3 0-4 0-5-1-1-1-2-2-3-4-1-1-2-4-3-6 0-3-1-7-1-10l0-59 0-3c-1-2-2-5-3-7-2-3-3-5-5-7-3-2-6-4-10-4l-1 0c-4 1-7 2-9 4-2 1-3 2-4 4-3 4-4 8-4 13l0 79c0 3-1 6-1 9-1 3-2 5-3 7-1 2-2 3-3 4-1 1-2 1-5 1-2 0-3 0-4-1-2-1-3-2-4-4-1-2-2-4-2-7-1-3-1-6-1-9l0-79c0-4-1-8-4-13-2-3-5-6-8-7-2 0-4-1-7-1-4 0-7 2-10 5-2 2-3 4-5 6-1 3-2 6-3 8l0 2 0 165c0 4 0 7-1 10 0 3-1 6-2 8-2 2-3 4-4 5-1 1-2 1-4 1-3 0-4 0-5-1-1-1-2-3-3-5-1-2-2-4-2-8-1-3-1-6-1-10l0-254-14-7c-3 2-7 5-11 9-4 3-8 6-13 9-4 4-8 7-13 10-4 4-8 7-12 9-4 3-8 5-11 7-3 1-5 2-7 2l-1 1-4 1-1 0-5-2c-2-1-3-2-4-3-1-1-2-2-2-4l-1-4 0-2c0-2 1-3 2-5 1-1 2-3 3-4l1 0 1-2c6-6 12-13 18-20 3-5 25-16 31-24 4-6 9-12 13-17 5-6 9-13 14-19l12-17 19-18c7-5 13-9 20-13 7-4 14-7 22-9 8-2 16-4 26-4 17 0 32 4 46 10z m-220 360l0 17 51 0 0-17z m154 0l0 17 52 0 0-17z m-5 51l-12 12 36 37 12-12z m-93 3l-36 37 12 12 36-37z m39 5l0 51 17 0 0-51z"/>
<glyph glyph-name="pan" unicode="&#112;" d="M234 36c-11 3-21 8-30 13-10 5-19 11-27 18-8 7-17 15-25 23l-1 1c-10 14-20 28-31 43-5 7-10 13-16 21-5 7-11 15-17 22-6 8-13 16-19 24l-20 24-5 4c-2 2-3 4-4 6-3 4-5 8-5 14l0 3 0 0c0 5 0 9 2 13 1 4 4 7 6 10 3 3 6 6 10 8 4 2 8 3 13 3l2 1 1 0c4 0 8-1 12-3l5-1c2-1 4-2 6-3 5-3 10-6 15-9 5-4 10-7 16-11 5-4 10-8 15-12l15-12 0 193c0 5 0 10 1 15 1 5 2 10 4 14 3 5 6 9 10 12 5 4 10 6 16 6 3 0 6-1 8-3 5-3 9-10 10-12 3-5 4-10 5-15 1-5 2-10 2-15l0-102 2-5 1-2 1-1c2 0 4-1 6-1l1-1 2 1c1 2 1 3 1 6l0 125c0 5 1 10 2 14 1 5 2 10 5 14 2 5 5 8 10 11 4 3 10 5 16 5 5 0 11-2 16-5 4-3 7-6 10-11 2-4 4-8 5-14 0-4 1-9 1-14l0-125c0-2 0-4 2-6l1-1c2 0 4 0 5 0l2 0 1 1 2 5 0 100c0 5 0 10 1 15 1 5 3 10 5 14 3 4 6 8 10 11 5 3 10 4 16 4l1 0 4 0 4-2 1 0c4-3 7-7 9-11 3-4 4-9 5-14 1-5 2-10 2-15l0-114 0-2 3 0 2-1 2 2 2 3 0 89c0 4 0 8 1 13 1 5 2 10 5 14 0 0 1 5 3 7 1 1 2 2 3 4l1 0c5 4 10 6 16 6 6 0 12-2 16-5 5-3 8-6 10-11 3-4 4-9 5-14 1-5 2-9 2-14l-1-204c0-25-4-47-12-68-8-20-19-38-33-53-15-15-32-26-51-35-19-8-40-12-62-12-13 0-25 1-36 4z m91 24c18 8 33 18 45 31 13 13 23 29 30 48 7 18 11 38 11 61l0 204c0 3 0 7-1 11 0 3-1 6-3 9-1 2-2 4-4 5-2 1-3 1-7 1-1 0-2 0-3 0l-3-1 0-2c-1-1-1-2-2-4-2-3-3-6-3-9-1-4-1-7-1-10l0-91-1-3c-1-3-2-5-4-7-1-3-3-5-5-6-3-3-6-4-10-4-4 0-10 1-15 4l-2 1c-4 4-6 9-6 15l0 114c0 4-1 8-1 12-1 3-2 6-3 8l-5 5c-3 0-5-1-6-1-2-2-4-3-5-6-1-2-2-5-3-8-1-4-1-8-1-12l0-102 0-3c-2-3-3-5-4-8-2-3-3-5-5-7-3-3-6-3-7-3-4-1-11 0-11 0-7 0-12 4-15 9-4 4-5 9-5 15l0 125c0 4-1 8-1 11-1 4-2 7-3 9-2 2-3 4-5 5-1 1-3 2-6 2-3 0-5-1-7-2-2-1-3-3-4-5-2-2-3-5-3-9-1-4-1-7-1-11l0-125c0-5-2-10-4-15-1-1-2-2-3-3-1-1-2-2-4-3-3-2-6-3-10-3l-1 0c-3 1-11 3-15 5l-1 0-1 1-1 1c-2 2-4 4-6 7-1 3-2 6-3 10l0 1 0 104c0 4-1 8-1 12-1 3-2 7-4 10-1 1-1 3-2 4l-2 1-2 0c-1 0-2-1-2-1-2-2-4-3-5-6-2-3-3-6-3-10-1-4-1-8-1-12l0-210-14-7c-4 3-8 6-13 10-5 4-10 8-15 12-5 4-10 8-16 12-5 4-10 7-15 11-4 3-9 5-13 7-3 2-6 3-8 4l-2 0-5 1-2 0c-2 0-4-1-6-2-2-1-4-2-5-3-1-2-2-4-3-6l-1-6 0-2c0-2 1-4 2-6 2-3 3-4 5-6l1-1 1-1c7-8 14-16 21-24 6-8 13-16 19-24 6-8 12-15 18-23 5-7 11-14 15-21 6-7 12-15 17-22l14-20 24-22c8-6 16-11 24-16 8-5 17-8 27-11 9-3 19-4 31-4 20 0 38 4 55 11z"/>
<glyph glyph-name="rectangle" unicode="&#113;" d="M34 32l0 446 429 0 0-446z m412 17l0 412-395 0 0-412z"/>
<glyph glyph-name="select" unicode="&#114;" d="M293 30l-68 149-88-86 0 397 287-286-126 0 64-142z m8 23l38 18-68 150 111 0-228 227 0-314 77 74z"/>
<glyph glyph-name="shape" unicode="&#115;" d="M440 84l-162 163 0 29-30 0-162 163 0 56-69 0 0-69 56 0 105-105c-32 18-67 30-105 35l-1 1-3-18 2 0c63-10 120-38 165-83l0-22 20 0c1-1 1-1 2-2 1-1 2-2 3-4 46-59 65-132 54-204l0-2 17-3 1 2c9 61-2 122-31 177l126-126 0-56 68 0 0 68z m5-51l0 21 12-12 13 13-12 12 21 0 0-34z m-377 444l0-21-12 12-12-12 12-12-21 0 0 33z"/>
<glyph glyph-name="text" unicode="&#116;" d="M420 83l-98 0 0 14 6 0c3 0 5 2 5 9 0 1 0 3-1 5l-33 95-119 0c-13-35-19-61-19-78 0-10 3-17 9-23 6-6 14-8 23-8l15 0 0-14-122 0 0 14c20 1 39 22 55 65l112 285 16 0 97-279c6-20 13-34 19-44 10-18 22-27 35-27z m-127 140l-49 145-58-145z"/>
<glyph glyph-name="textposition" unicode="&#117;" d="M395 46l-40 88-55-54 0 255 184-184-79 0 38-83z m8 23l17 8-42 92 64 0-125 124 0-172 44 42z m-293 82l0 9 11 0c14 0 24 4 30 12 3 5 5 17 5 36l0 249-39 0c-16 0-27-1-33-3-8-3-15-9-21-18-6-8-10-20-11-35l-9 0 4 77 267 0 3-77-9 0c-2 14-4 23-7 29-5 9-12 16-20 21-8 4-19 6-33 6l-46 0 0-249c0-21 2-33 7-38 6-7 15-10 28-10l11 0 0-9z"/>
<glyph glyph-name="zoom" unicode="&#118;" d="M450 44l-178 178c-24-20-54-31-86-31-36 0-70 14-95 39-26 26-40 60-40 96 0 36 14 70 40 95 25 26 59 40 95 40 36 0 70-14 96-40 25-25 39-59 39-95 0-32-11-62-31-86l178-178c5-5 5-13 0-18-3-2-6-3-9-3-3 0-6 1-9 3z m-186 204c21 21 32 48 32 78 0 29-11 57-32 78-21 21-48 32-78 32-29 0-57-11-78-32-21-21-32-49-32-78 0-30 11-57 32-78 21-21 49-32 78-32 30 0 57 11 78 32z m-85 27l0 46-46 0c-4 0-8 3-8 7 0 4 4 7 8 7l46 0 0 47c0 4 3 7 7 7 4 0 7-3 7-7l0-47 47 0c4 0 7-3 7-7 0-4-3-7-7-7l-47 0 0-46c0-4-3-8-7-8-4 0-7 4-7 8z"/>
<glyph glyph-name="actualzoom" unicode="&#119;" d="M428 40l-120 120c-8 7-10 19-6 29l-13 13c-58-45-141-45-199 5-67 56-75 157-19 224 57 66 157 75 224 18 67-56 75-157 19-224-4-4-8-8-12-12l13-12c9 4 21 3 29-5l120-120c10-10 10-26 0-36-10-11-26-11-36 0z m-127 196c50 60 43 150-17 200-60 51-149 43-200-17-50-59-43-149 17-199 60-51 149-43 200 16z m-191 21l0 105c-4-4-9-7-16-11-6-4-12-7-17-9l0 16c9 5 17 10 24 16 7 6 12 12 15 18l11 0 0-135z m68 0l0 19 19 0 0-19z m88 0l0 105c-4-4-9-7-15-11-7-4-12-7-18-9l0 16c10 5 18 10 25 16 7 6 11 12 14 18l11 0 0-135z m-88 79l0 18 19 0 0-18z"/>
<glyph glyph-name="breakatpoint" unicode="&#120;" d="M238 92c-5 1-8 6-6 11l31 118-23 0c-6 0-10 6-8 11l30 74-22 0c-5 0-9 5-9 10l18 120c0 5 5 8 9 7 5 0 8-5 8-9l-16-111 24 0c6 0 10-6 8-11l-29-74 21 0c6 0 10-6 9-11l-35-129c-1-4-6-7-10-6z m110 156c-18 7-27 27-20 44 6 18 26 27 44 21 11-4 18-13 21-24l87 0c5 0 9-4 9-8 0-5-4-9-9-9l-87 0c0-1 0-2-1-3-6-18-26-27-44-21z m-209 21c0 1-1 2-1 3l-95 0c-5 0-9 4-9 9 0 4 4 8 9 8l95 0c3 11 11 20 22 24 17 6 37-3 44-21 6-17-3-37-21-44-18-6-37 3-44 21z"/>
<glyph glyph-name="closedpath" unicode="&#121;" d="M112 92c-81 81-81 212 0 292 30 30 66 49 105 56 0 11 4 22 12 30 16 16 43 16 59 0 16-17 16-43 0-59-16-17-43-17-59 0-4 3-7 8-9 12-35-7-69-24-96-51-74-74-74-194 0-267 74-74 193-74 267 0 18 17 31 37 40 58-5 2-10 5-14 10-16 16-16 42 0 59 16 16 43 16 59 0 17-17 17-43 0-59-7-8-17-12-27-13-10-24-25-48-46-68-80-80-211-80-291 0z m276 279c-19 20-42 34-66 43l6 16c26-10 51-25 73-47 32-33 52-74 58-116l-17-3c-6 39-24 77-54 107z"/>
<glyph glyph-name="curved" unicode="&#122;" d="M309 15l0 68-22 0-66 85 122 243 0-148-6-2c-15-5-26-18-28-35-3-24 14-45 37-48 24-3 45 14 48 37 3 21-10 39-28 46l-6 2 0 148 122-243-66-85-22 0 0-68z m68 17l0 51-51 0 0-51z m30 69l54 69-84 169 0-64 4-2c20-12 33-35 30-60-4-33-34-56-67-52-33 4-56 34-52 67 2 20 15 37 32 46l2 1 0 64-84-169 54-69z m40 223c-67 106-132 154-193 154-60-1-123-51-187-154-2-4-7-5-12-3-4 3-5 8-2 12 64 104 131 161 201 162 71 1 140-55 208-162 2-4 1-9-3-12-4-2-9-1-12 3z"/>
<glyph glyph-name="deletepoint" unicode="&#65;" d="M154 57l0 232 189 0 0-232c0-14-11-25-25-25l-139 0c-13 0-25 11-25 25z m52 18l0 171c0 5-4 9-9 9-5 0-8-4-8-9l0-171c0-5 3-9 8-9 5 0 9 4 9 9z m51 0l0 171c0 5-4 9-8 9-5 0-9-4-9-9l0-171c0-5 4-9 9-9 4 0 8 4 8 9z m52 0l0 171c0 5-4 9-9 9-5 0-9-4-9-9l0-171c0-5 4-9 9-9 5 0 9 4 9 9z m-239 248l-19 29 214 142 19-28z m155 28c0 3-1 5-1 7l-27 0c-5 0-8 4-8 8 0 5 3 9 8 9l27 0c3 14 12 26 27 31 22 9 47-3 55-25 1-2 1-4 2-6l103 0c5 0 9-4 9-9 0-4-4-8-9-8l-103 0c-3-14-13-27-27-32-23-8-47 3-56 25z m-113 65l-7 10c-1 1 0 3 1 3l67 45c1 1 3 1 4-1l6-10c1-1 1-2 0-3l-68-45c-1-1-2 0-3 1z"/>
<glyph glyph-name="eyedropperapply" unicode="&#66;" d="M174 49l23 101 24-24 62 62 29-29-61-62 24-25z m-107 21c-2 2-1 5 1 6 16 12 28 16 38 19 5 1 9 2 13 4 3 1 7 4 10 7l148 148-41 40-147-148c-7-7-8-13-11-23-3-10-7-22-19-38-1-2-4-3-6-1-2 1-2 4-1 6 11 15 15 26 17 36 2 4 3 9 5 13 2 5 4 9 9 13l147 148-6 7c-7 7-8 18-2 24 7 7 18 6 25-1l2-3 123 123c18 18 46 18 63 1 17-17 17-45-1-62l-123-124 3-2c7-7 8-18 1-25l0 0c-6-6-17-5-25 2l-7 7-148-147c-9-9-17-11-27-13-9-3-20-6-35-18-2-1-5-1-6 1z m167 180l0 0c0 0 0 0 0 0z m0 0l0 0c0 0 0 0 0 0z"/>
<glyph glyph-name="eyedroppersettarget" unicode="&#67;" d="M201 46l-29 29 62 62-24 24 100 23-23-100-24 24z m-136 21c-2 2-1 5 1 6 16 12 28 16 38 19 5 1 9 2 12 4 4 1 7 3 11 7l148 147-41 41-147-148c-7-7-8-14-11-23-3-10-7-22-19-39-1-1-4-2-6 0-2 1-2 4-1 6 11 15 15 26 17 35 2 5 3 9 5 14 2 4 4 9 9 13l147 148-6 6c-8 7-8 19-2 25 7 6 18 6 25-2l2-2 123 123c18 18 46 18 63 1 17-17 17-45-1-63l-123-123 3-2c7-7 8-19 1-25-6-6-17-6-25 2l-7 7-148-148c-9-8-17-10-27-13-9-2-20-6-35-17-2-1-5-1-6 1z m167 180l0 0c0 0 0 0 0 0z m0 0l0 0c0 0 0 0 0 0z"/>
<glyph glyph-name="ignoresnap" unicode="&#68;" d="M339 88c-7 39 19 75 58 82 39 7 75-19 82-58 7-39-19-76-58-82-39-7-76 19-82 58z m79-39c7 1 14 4 20 8l-72 72c-7-11-10-24-8-38 5-28 31-47 60-42z m42 60c-5 28-32 47-60 42-7-1-14-4-20-8l72-72c7 10 10 24 8 38z m-426 14l0 215c0 28 9 56 26 81 45 63 132 78 195 33 38-27 59-70 59-114l0-215-67 0 0 215c0 23-11 45-31 59-33 23-78 15-101-17-7-10-11-20-13-31l0-11 0-215z m275 189l0 26-1 16c-4 36-23 71-56 94-61 43-145 29-188-32-13-18-20-38-23-58l-2-20 0-25 58 0 0 25c0 15 4 31 14 45 25 34 73 43 108 18 21-15 33-39 33-63l0-26z"/>
<glyph glyph-name="pagewidth" unicode="&#70;" d="M103 126l-52 26 52 26 0-17 308 0 0 17 52-26-52-26 0 17-308 0z m343 99l0 64-129 0c-5 0-8 4-8 9l0 128-223 0c-10 0-17-8-17-17l0-181c0-5-4-9-9-9-5 0-9 4-9 9l0 181c0 19 16 34 35 34l242 0c2 0 5-1 6-2l126-128c2-2 3-4 3-6l0-82c0-4-4-8-9-8-4 0-8 4-8 8z m-3 81l-117 119 0-119z"/>
<glyph glyph-name="pointtype" unicode="&#71;" d="M206 15l0 34-22 0-66 85 122 243 0-148-6-2c-15-6-26-19-28-35-3-24 14-45 37-48 24-3 45 14 48 37 3 20-10 39-28 46l-6 2 0 148 122-243-66-85-22 0 0-34z m68 17l0 17-51 0 0-17z m30 34l54 70-84 168 0-64 4-1c21-12 33-35 30-60-4-33-34-56-67-52-33 4-56 34-52 67 3 20 15 37 32 46l2 0 0 64-84-168 54-70z m-248 181c-4 2-6 7-4 11 43 94 86 156 132 185l-124 0c-5 0-9 4-9 9 0 5 4 9 9 9l147 0c2 14 12 26 27 31 22 8 47-3 55-25 1-2 1-4 2-6l163 0c5 0 9-4 9-9 0-5-4-9-9-9l-143 0c50-30 100-94 151-184 2-4 1-9-4-12-4-2-9 0-11 4-57 100-109 163-159 185-4-11-13-20-25-24-22-8-47 3-55 25 0 0 0 0 0 0-45-20-92-79-140-186-2-4-7-6-12-4z"/>
<glyph glyph-name="polyline" unicode="&#72;" d="M309 15l0 68-22 0-66 85 122 243 0-148-6-2c-15-5-26-18-28-35-3-24 14-45 37-48 24-3 45 14 48 37 3 21-10 39-28 46l-6 2 0 148 122-243-66-85-22 0 0-68z m68 17l0 51-51 0 0-51z m30 69l54 69-84 169 0-64 4-2c20-12 33-35 30-60-4-33-34-56-67-52-33 4-56 34-52 67 2 20 15 37 32 46l2 1 0 64-84-169 54-69z m-373 334c0 5 4 8 9 8l428 0c5 0 9-3 9-8 0-5-4-9-9-9l-428 0c-5 0-9 4-9 9z"/>
<glyph glyph-name="selectlasso" unicode="&#73;" d="M387 12l-56 123-74-72 0 337 244-243-107 0 54-117z m9 23l29 13-57 126 91 0-185 185 0-255 63 61z m-293 168l0 18 34 0 0-18z m51 0l0 18 35 0 0-18z m52 0l0 18 34 0 0-18z m-172 0l0 52 17 0 0-34 35 0 0-18z m0 69l0 34 17 0 0-34z m360 0l0 34 17 0 0-34z m-360 51l0 35 17 0 0-35z m360 0l0 35 17 0 0-35z m-360 52l0 34 17 0 0-34z m360 0l0 34 17 0 0-34z m-360 51l0 52 52 0 0-17-35 0 0-35z m360 0l0 35-34 0 0 17 51 0 0-52z m-291 35l0 17 34 0 0-17z m51 0l0 17 35 0 0-17z m52 0l0 17 34 0 0-17z m51 0l0 17 34 0 0-17z m52 0l0 17 34 0 0-17z"/>
<glyph glyph-name="selectmany" unicode="&#74;" d="M224 21l-67 148-88-86 0 397 286-286-126 0 64-142z m8 22l39 18-69 150 112 0-228 228 0-315 76 74z m111 263l0 17 120 0 0-17z m51 52l0 51-51 0 0 17 51 0 0 52 17 0 0-52 52 0 0-17-52 0 0-51z"/>
<glyph glyph-name="selectmenu" unicode="&#75;" d="M224 21l-67 148-88-86 0 397 286-286-126 0 64-142z m8 22l39 18-69 150 112 0-228 228 0-315 76 74z m77 349l0 34 34 0 0-34z m68 0l0 34 34 0 0-34z m69 0l0 34 34 0 0-34z"/>
<glyph glyph-name="wholepage" unicode="&#76;" d="M206 15l-52 26 52 25 0-17 205 0 0 17 52-25-52-26 0 17-205 0z m-129 86l-26 51 18 0 0 291-18 0 26 52 26-52-17 0 0-291 17 0z m77 28l0 338c0 15 13 28 28 28l183 0 98-100 0-266c0-16-13-28-28-28l-253 0c-15 0-28 12-28 28z m292 0l0 246-85 0c-5 0-9 4-9 8l0 95-170 0c-6 0-11-5-11-11l0-338c0-7 5-11 11-11l253 0c6 0 11 4 11 11z m-4 263l-72 73 0-73z"/>
<glyph glyph-name="curvedroute" unicode="&#77;" d="M322 126l1 61-19 1c-149 10-251 79-253 238l18 0c1-147 93-212 236-221l18-1 1 60 159-72z"/>
<glyph glyph-name="roundedsteppedroute" unicode="&#78;" d="M313 86l0 65-63 0c-27 2-44 11-54 26-9 15-10 33-10 50l2 124-2 14c-5 31-25 45-53 43l-82 0 0 19 82 0 7 0c40-1 64-30 66-76l-1-124c-1-17 1-30 7-40 4-7 13-14 31-16l8-1 62 0 0 65 174-74z"/>
<glyph glyph-name="steppedroute" unicode="&#79;" d="M313 86l0 65-125 0 0 257-154 0 0 19 172 0 0-257 107 0 0 65 174-74z"/>
<glyph glyph-name="straightroute" unicode="&#80;" d="M305 206l0 65-254 0 0 19 254 0 0 65 174-74z"/>
<glyph glyph-name="locked" unicode="&#81;" d="M86 77l0 184c0 25 20 45 45 45l6 0 0 117c0 22 19 38 40 38l143 0c21 0 40-16 40-38l0-117 7 0c24 0 44-20 44-45l0-184c0-25-20-45-44-45l-236 0c-25 0-45 20-45 45z m308 0l0 184c0 16-12 28-27 28l-236 0c-16 0-28-12-28-28l0-184c0-15 12-28 28-28l236 0c15 0 27 13 27 28z m-171 7l0 60c-6 3-12 7-17 11-23 24-23 62 0 85 24 24 62 24 85 0 23-23 23-61 0-85-5-4-11-8-17-11l0-60c0-5-4-9-8-9l-35 0c-4 0-8 4-8 9z m34 8l0 57c0 4 2 7 6 8 6 3 11 6 16 11 17 16 17 43 0 60-17 17-44 17-61 0-17-17-17-44 0-60 5-5 10-8 16-11 4-1 6-4 6-8l0-57z m49 214l0 84c0 10-10 20-24 20l-67 0c-14 0-23-10-23-20l0-84z m-131 3l0 81c0 21 18 37 40 37l67 0c22 0 41-16 41-37l0-81 20 0 0 114c0 11-10 20-23 20l-143 0c-13 0-23-9-23-20l0-114z"/>
<glyph glyph-name="obstacle" unicode="&#82;" d="M154 199l0 128c0 27 21 48 48 48l93 0c27 0 48-21 48-48l0-128c0-26-21-47-48-47l-93 0c-27 0-48 21-48 47z m172 0l0 128c0 17-14 31-31 31l-93 0c-17 0-31-14-31-31l0-128c0-16 14-30 31-30l93 0c17 0 31 14 31 30z m98 22l6 17-53 0 0 184-257 0 0-184-103 0 0 17 86 0 0 184 291 0 0-184 36 0-6 17 77-26z"/>
<glyph glyph-name="textalignbottom" unicode="&#83;" d="M34 49l0 17 446 0 0-17z m86 69l0 17 274 0 0-17z m-86 68l0 17 446 0 0-17z m86 69l0 17 274 0 0-17z"/>
<glyph glyph-name="textaligncenter" unicode="&#84;" d="M34 66l0 17 446 0 0-17z m86 86l0 17 274 0 0-17z m-86 86l0 17 446 0 0-17z m86 85l0 18 274 0 0-18z m-86 86l0 17 446 0 0-17z"/>
<glyph glyph-name="textalignleft" unicode="&#85;" d="M34 66l0 17 446 0 0-17z m0 86l0 17 275 0 0-17z m0 86l0 17 446 0 0-17z m0 85l0 18 275 0 0-18z m0 86l0 17 446 0 0-17z"/>
<glyph glyph-name="textalignmiddle" unicode="&#86;" d="M120 152l0 17 274 0 0-17z m-86 69l0 17 446 0 0-17z m86 68l0 17 274 0 0-17z m-51 69l0 17 377 0 0-17z"/>
<glyph glyph-name="textalignright" unicode="&#87;" d="M34 66l0 17 446 0 0-17z m172 86l0 17 274 0 0-17z m-172 86l0 17 446 0 0-17z m172 85l0 18 274 0 0-18z m-172 86l0 17 446 0 0-17z"/>
<glyph glyph-name="textaligntop" unicode="&#88;" d="M120 238l0 17 274 0 0-17z m-86 68l0 17 446 0 0-17z m86 69l0 17 274 0 0-17z m-86 68l0 18 446 0 0-18z"/>
<glyph glyph-name="visible" unicode="&#89;" d="M177 107c0 0 0 0 0 0l0 0c-57 17-104 47-141 88l0 11c38 42 87 74 145 90 0 0 0 0 1 0l3 2 0 0c54 13 107 10 156-5l1 0c52-16 99-46 136-87l0-11c-39-43-90-76-151-91-51-12-103-10-150 3z m144 15l20 5 8 10c18 26 25 60 15 94-5 14-12 27-21 38l-8 8c-46 14-95 15-144 4 0-1-1-1-1-1l-9-8c-25-28-35-67-24-105 4-13 11-25 19-36l8-8 0 0c43-12 90-13 137-1z m-137 1l0 0-3 1c1-1 2-1 3-1z m-43 39c-12 38-4 78 17 108-36-14-68-34-95-60l-8-9-6 5c2-2 4-4 6-5 27-30 62-53 99-68-5 9-10 19-13 29z m68-7c-27 27-27 70 0 97 26 27 70 27 97 0 26-27 26-70 0-97-27-27-71-27-97 0z m242 37l9 9-8 8c-25 24-54 43-86 57 6-9 11-19 14-30 11-35 6-70-11-100 31 14 58 33 82 56z m-157-25c20 20 20 53 0 73-21 20-53 20-73 0-20-20-20-53 0-73 20-20 52-20 73 0z m109 119l-12 12 63 63 12-12z m-292 8l-63 64 12 12 64-64z m65 35l-42 84 16 8 41-84z m171 0l-16 8 42 84 16-8z m-98 20l0 86 17 0 0-86z"/>
<glyph glyph-name="arrange" unicode="&#90;" d="M137 91l0 20 17 0 0-20c0-23 19-42 43-42l224 0c23 0 42 19 42 42l0 224c0 24-19 43-42 43l-25 0 0 17 25 0c32 0 59-27 59-60l0-224c0-32-27-59-59-59l-224 0c-33 0-60 27-60 59z m-103 103l0 224c0 33 27 60 60 60l224 0c33 0 59-27 59-60l0-224c0-33-26-59-59-59l-224 0c-33 0-60 26-60 59z m326 0l0 224c0 24-19 43-42 43l-224 0c-24 0-43-19-43-43l0-224c0-23 19-42 43-42l224 0c23 0 42 19 42 42z"/>
<glyph glyph-name="arrangebold" unicode="&#48;" d="M154 80l0 21 35 0 0-21c0-17 13-31 31-31l212 0c17 0 31 14 31 31l0 212c0 17-14 31-31 31l-21 0 0 35 21 0c36 0 65-30 65-66l0-212c0-36-29-65-65-65l-212 0c-36 0-66 29-66 65z m-120 123l0 207c0 37 31 68 68 68l207 0c38 0 68-31 68-68l0-207c0-38-30-68-68-68l-207 0c-37 0-68 30-68 68z m309 0l0 207c0 18-15 33-34 33l-207 0c-18 0-33-15-33-33l0-207c0-19 15-34 33-34l207 0c19 0 34 15 34 34z"/>
<glyph glyph-name="documenttree" unicode="&#49;" d="M324 74c-9 13-14 29-15 44l-60 0c-5 0-9 4-9 8 0 2 0 3 1 4-1 1-1 2-1 3l0 225-35 0c-2-28-17-54-41-70-44-29-102-17-131 26-29 43-17 102 26 131 43 29 102 17 131-26 9-14 14-29 15-44l104 0c2 27 17 53 42 70 43 29 101 17 130-26 29-44 17-102-26-131-43-29-102-17-131 26-9 13-14 29-15 44l-52 0 0-223 52 0c2 27 17 53 42 70 43 29 101 17 130-26 29-44 17-102-26-131-43-29-102-17-131 26z m122-12c35 24 45 72 21 107-24 35-72 45-107 21-35-23-45-71-21-107 23-35 71-45 107-21z m-47 13l0 47-48 0 0 9 48 0 0 47 8 0 0-47 47 0 0-9-47 0 0-47z m-245 227c36 24 45 72 22 107-24 36-72 45-107 21-36-23-45-71-22-107 24-35 72-45 107-21z m292 0c35 24 45 72 21 107-24 35-72 45-107 21-35-23-45-71-21-107 23-35 71-45 107-21z m-47 13l0 47-48 0 0 9 48 0 0 47 8 0 0-47 47 0 0-9-47 0 0-47z m-344 49l0 9 103 0 0-9z"/>
<glyph glyph-name="iconfinder" unicode="&#50;" d="M433 61l-178 178c-24-20-54-31-86-31-36 0-70 14-95 40-26 25-40 59-40 95 0 36 14 70 40 95 25 26 59 40 95 40 36 0 70-14 95-40 26-25 40-59 40-95 0-32-11-62-31-86l178-178c5-5 5-13 0-18-3-2-6-3-9-3-3 0-6 1-9 3z m-186 204c21 21 32 48 32 78 0 29-11 57-32 78-21 21-48 32-78 32-29 0-57-11-78-32-21-21-32-49-32-78 0-30 11-57 32-78 21-21 49-32 78-32 30 0 57 11 78 32z m-55 6l-33 34-43-21 13 46-40 27 47 11 3 48 33-34 43 21-13-46 40-27-47-11z m-7 20l2 34 34 9-29 19 10 34-32-16-24 25-2-35-34-8 29-19-10-34 32 16z"/>
<glyph glyph-name="layers" unicode="&#51;" d="M258 32l-222 122 75 41 18-10-58-31 187-102 186 102-51 28 17 10 70-38z m-2 102l-222 121 76 41 17-10-57-31 186-102 186 102-52 28 18 10 70-38z m4 103l-227 121 227 121 226-121z m0 19l190 102-190 101-190-101z"/>
<glyph glyph-name="page" unicode="&#53;" d="M69 63l0 384c0 17 14 31 31 31l214 0 115-113 0-302c0-17-15-31-32-31l-297 0c-17 0-31 14-31 31z m342 0l0 278-111 0c-5 0-9 3-9 8l0 112-191 0c-8 0-14-7-14-14l0-384c0-8 6-14 14-14l297 0c8 0 14 6 14 14z m0 295l0 0-102 101 0-101z"/>
<glyph glyph-name="pageproperties" unicode="&#54;" d="M153 27l-10 5-8 22-13 2-17-20-11-2-33 20-3 12 11 21-7 8-25-2-10 6-9 40 5 10 24 8 0 10-20 17-2 11 20 33 11 3 24-10 6 5-3 27 7 9 36 10 10-5 11-23 12-2 19 21 11 1 30-20 3-10-8-23 5-8 27 2 9-6 10-36-4-10-26-12-2-10 22-16 3-11-20-34-11-3-25 11-9-7 3-25-6-9z m108 14c0 4 4 8 8 8l180 0c7 0 14 6 14 15l0 294-103 0c-5 0-9 4-9 8l0 107c0 2 1 3 2 5l-202 0c-7 0-14-7-14-15l0-157c0-5-4-9-8-9-5 0-9 4-9 9l0 157c0 18 14 32 31 32l211 0c2 0 4-1 6-3l110-112c1-1 2-3 2-6l0-310c0-18-14-32-31-32l-180 0c-4 0-8 4-8 9z m-105 4l22 6-2 23 3 7 17 14 9 1 22-10 12 20-20 15-4 8 4 20 5 6 23 10-6 23-26-3-8 4-10 17-1 7 8 20-19 13-17-19-8-2-20 3-7 5-9 20-23-6 2-23-2-7-13-13-10-2-22 10-13-20 18-15 3-6 0-20-6-9-22-7 6-25 22 3 8-3 13-16 2-10-10-19 20-12 15 17 7 3 23-3 7-5z m-40 47c-8 3-14 7-20 13-6 6-10 12-13 20-3 7-5 15-5 24 0 8 2 16 5 24 3 8 7 14 13 20 6 5 12 10 20 13 7 3 15 5 24 5 8 0 17-2 24-5 8-3 14-8 20-13 6-6 10-12 13-20 3-7 5-16 5-24 0-9-2-17-5-24-3-8-7-14-13-20-6-6-12-10-20-13-7-4-16-5-24-5-9 0-17 1-24 5z m41 15c6 3 11 6 15 10 4 4 7 9 9 14 3 6 4 12 4 18 0 6-1 12-4 17-2 6-5 11-9 15-4 4-9 7-15 9-5 3-11 4-17 4-6 0-12-1-17-4-6-2-11-5-15-9-4-4-7-9-9-15-3-5-4-11-4-17 0-6 1-12 4-18 2-5 5-10 9-14 4-4 9-7 14-10 6-2 12-3 18-3 6 0 12 1 17 3z m302 268l-90 92 0-92z"/>
<glyph glyph-name="pagepropertiesbold" unicode="&#55;" d="M244 32c0 9 7 17 17 17l179 0c3 0 6 3 6 6l0 268-112 0c-9 0-17 8-17 18l0 120-174 0c-3 0-6-3-6-6l0-158c0-9-8-17-17-17-9 0-17 8-17 17l0 158c0 22 17 40 40 40l210 0c5 0 9-2 12-5l110-112c3-3 5-8 5-12l0-311c0-22-18-40-40-40l-179 0c-10 0-17 8-17 17z m-92-14l-11 29-24 3-22-25-35 22 14 28-14 17-32-3-11 42 32 11 0 22-25 21 22 35 32-14 14 14-4 33 39 10 14-28 22-4 24 25 32-21-10-29 10-18 36 4 11-39-32-14-4-21 28-22-21-35-32 14-18-14 4-32z m10 69c7 3 13 7 19 13 5 5 9 11 12 18 3 7 4 14 4 22 0 8-1 16-4 23-3 7-7 13-12 18-6 5-12 9-19 12-7 3-14 5-22 5-8 0-16-2-22-5-7-3-14-7-19-12-5-5-9-11-12-18-3-7-5-15-5-23 0-8 2-15 5-22 3-7 7-13 12-18 5-6 12-10 19-13 6-3 14-4 22-4 8 0 15 1 22 4z m284 271l0 1-95 96 0-97z"/>
<glyph glyph-name="properties" unicode="&#56;" d="M92 37l-12 5 66 66-34 35-67-66-4 12c-4 10-7 21-7 33 0 50 41 91 91 91 7 0 14-1 20-2l12-4 56 55-12 13-24-23-35 35 7 7-4 3c-15 9-28 23-45 40-46 46-83 104-57 131 26 26 76-2 122-49 17-17 36-35 48-52l4-5 7 7 35-35-23-24 13-12 55 56-4 12c-1 6-2 13-2 20 0 50 41 91 91 91 12 0 23-2 33-6l12-5-66-67 35-34 66 66 5-12c4-10 6-21 6-33 0-50-41-91-91-91-5 0-10 0-14 1l-9 2-59-59 84-84 6 6 69-69-47-47-69 69 6 6-84 84-59-59 2-9c1-4 1-9 1-14 0-50-40-91-91-91-11 0-23 2-33 6z m107 85c0 8-1 16-3 23l-2 5 78 78 108-108-6-6 45-45 23 23-45 45-6-6-108 108 78 78 5-1c7-3 15-4 23-4 41 0 74 33 74 74l-1 14-59-59-59 58 59 59-14 2c-41 0-74-33-74-74 0-11 3-22 7-31l2-6-75-75-37 36 23 24-11 11-13-13-5 12c-6 18-29 39-53 63-50 51-85 61-98 49-12-12 6-56 57-106 24-24 37-38 55-45l12-5-13-13 11-11 24 23 36-37-75-75-6 2c-9 4-20 7-31 7-41 0-74-33-74-74l2-14 59 59 58-59-59-58 14-2c41 0 74 33 74 74z"/>
<glyph glyph-name="propertiesbold" unicode="&#57;" d="M120 202c13 0 25-2 36-7l68 68-26 25-24-24-24 24 10 10c-20 8-36 25-60 49-50 50-79 103-59 123 20 20 64 0 114-50 25-25 50-49 58-69l10 10 24-24-24-24 25-26 68 68c-5 11-7 23-7 36 0 47 38 86 85 86 11 0 22-2 32-6l-66-66 48-48 66 65c4-9 6-20 6-31 0-47-38-86-86-86-9 0-18 2-26 4l-71-71 100-99 6 6 59-59-37-37-59 59 6 6-99 100-71-71c2-8 4-17 4-26 0-48-39-86-86-86-11 0-22 2-31 6l65 66-48 48-66-66c-4 10-6 21-6 32 0 47 39 85 86 85z"/>
<glyph glyph-name="stencils" unicode="&#33;" d="M34 101l0 308c0 38 31 69 69 69l308 0c38 0 69-31 69-69l0-308c0-38-31-69-69-69l-308 0c-38 0-69 31-69 69z m429 0l0 308c0 28-23 52-52 52l-308 0c-28 0-52-24-52-52l0-308c0-29 24-52 52-52l308 0c29 0 52 23 52 52z m-360 25l0 86c0 14 11 26 25 26l86 0c15 0 26-12 26-26l0-86c0-14-11-25-26-25l-86 0c-14 0-25 11-25 25z m165-25l79 137 79-137z m-45 25l0 86c0 5-4 9-9 9l-86 0c-4 0-8-4-8-9l0-86c0-5 4-8 8-8l86 0c5 0 9 3 9 8z m174-8l-50 85-49-85z m-10 143l-40 43-53-26 17 57-49 33 58 14 4 58 41-43 53 26-17-57 48-33-57-14z m-264 48c-27 27-27 70 0 97 27 27 70 27 97 0 27-27 27-70 0-97-27-27-70-27-97 0z m250-8l3 32 32 8-27 18 9 32-29-14-23 23-2-32-32-8 27-18-10-32 30 14z m-165 20c20 20 20 53 0 73-20 20-53 20-73 0-20-20-20-53 0-73 20-20 53-20 73 0z"/>
<glyph glyph-name="stencilsbold" unicode="&#34;" d="M34 95l0 320c0 34 29 63 63 63l320 0c35 0 63-29 63-63l0-320c0-35-28-63-63-63l-320 0c-34 0-63 28-63 63z m406-14l-70 125-73-124z m-227 27l0 71c0 7-7 13-14 13l-106 0c-8 0-14-6-14-13l0-71c0-7 6-14 14-14l106 0c7 0 14 7 14 14z m175 185l7 47 47 7-37 29 17 44-44-17-29 36-7-46-47-7 37-29-17-44 44 17z m-193 24c27 27 27 71 0 98-27 27-71 27-98 0-27-27-27-71 0-98 27-27 71-27 98 0z"/>
<glyph glyph-name="structure" unicode="&#35;" d="M34 49l0 154 69 0 0 43 8 9 129 0 0 51-86 0 0 155 189 0 0-155-86 0 0-51 129 0 8-9 0-43 69 0 0-154-189 0 0 154 103 0 0 35-257 0 0-35 103 0 0-154z m172 17l0 120-155 0 0-120z m240 0l0 120-155 0 0-120z m-120 257l0 120-155 0 0-120z"/>
<glyph glyph-name="structure1" unicode="&#36;" d="M191 39c-17 26-10 60 15 77 18 12 41 12 58 1l30 74c-11 4-20 12-27 22-15 22-13 51 3 71l-92 62 0 0c-3-3-7-6-10-8-17-11-35-16-54-14l-14-86c20-1 39-11 51-29 19-29 11-68-18-88-29-19-69-11-88 18-19 29-12 69 18 88 8 6 18 9 28 10l15 88c-23 3-44 16-57 37-27 39-16 92 23 118 40 27 93 16 119-23 14-21 18-46 12-68l97 13c2 19 12 36 28 47 30 19 69 11 89-18 19-29 11-69-18-88-29-20-69-12-88 17-7 11-11 22-11 34l-100-14c-3-11-9-20-16-28l92-62c3 2 5 4 8 6 27 19 65 11 83-16 18-27 12-62-13-81l31-47c3 3 6 6 9 8 26 17 60 10 77-15 17-26 10-60-16-77-25-17-59-10-76 16-13 19-12 43 0 61l-32 49c-14-8-30-10-45-6l-30-76c4-3 7-7 10-12 17-25 10-59-15-76-25-17-60-10-76 15z m66-1c18 12 23 35 11 53-12 17-35 22-53 10-17-11-22-35-10-52 11-18 35-22 52-11z m189 45c17 11 22 35 10 52-11 18-35 22-52 11-17-12-22-36-11-53 12-17 36-22 53-10z m-322 52c21 15 27 44 13 65-15 21-44 27-65 13-21-15-27-43-13-65 14-21 43-27 65-13z m217 76c20 13 25 39 12 59-13 20-40 25-60 12-19-13-25-40-12-60 14-19 40-25 60-11z m-183 141c32 21 40 64 19 95-21 32-64 40-95 19-32-21-40-63-19-95 21-31 64-40 95-19z m231 5c22 14 28 43 13 64-14 22-43 28-64 13-12-8-20-21-21-34l1-4-1 0c0-9 2-18 8-26 14-22 43-27 64-13z"/>
<glyph glyph-name="styles" unicode="&#37;" d="M287 17c-6 2-11 4-15 8-6 6-10 13-13 19-2 7-4 13-4 19 0 7 1 13 3 19 2 6 3 12 5 18 2 5 4 10 6 15 1 5 2 10 2 14 0 3-1 7-2 10-2 4-4 7-7 10-5 4-10 7-16 9-7 2-15 3-23 3-9 0-17-1-26-2-10-2-18-4-27-5-8-2-16-3-22-5-7-1-13-2-17-2-5 0-11 1-18 3-7 2-14 5-23 9-8 4-16 9-25 15-8 6-16 13-23 21-7 9-13 18-18 28-5 11-7 23-7 36 0 21 3 42 9 63 5 20 13 39 24 56 10 17 23 33 37 48 15 14 31 26 49 37 18 10 37 18 57 23 21 6 42 9 64 9 22 0 43-3 64-9 20-5 39-13 57-23 18-11 34-23 49-37 14-15 27-31 37-48 11-17 19-36 25-56 5-21 8-42 8-63 0-21-2-40-5-57-3-17-8-32-13-46-6-13-12-25-19-36-7-10-14-19-22-27-7-8-14-15-21-21-6-6-12-11-17-16-6-5-13-11-21-16-8-5-16-9-25-13-8-4-17-7-25-9-9-2-17-3-25-3-6 0-12 1-17 2z m38 18c7 2 15 4 23 8 7 3 15 7 22 12 7 4 13 9 18 14 5 5 11 10 18 16 6 6 13 12 20 20 6 7 13 16 20 25 6 9 12 20 17 33 5 12 9 26 12 42 3 16 5 34 5 54 0 20-3 39-8 58-5 19-13 36-22 52-10 16-22 31-35 45-14 13-29 24-45 34-17 9-35 17-54 22-19 5-38 8-59 8-20 0-40-3-59-8-19-5-37-13-53-22-17-10-32-21-46-34-13-14-25-29-34-45-10-16-18-33-23-52-5-19-8-38-8-58 0-11 2-20 6-29 4-8 9-16 15-23 6-8 13-14 20-19 8-6 16-10 23-14 7-3 14-6 20-8 7-1 11-2 13-2 3 0 7 0 13 2 7 1 14 3 23 5 8 1 18 3 27 4 10 2 19 3 29 3 9 0 19-1 27-3 9-3 17-7 24-14 5-4 8-10 11-15 2-6 3-11 3-17 0-6-1-12-3-18-2-6-3-12-5-17-2-5-4-11-5-16-2-5-2-10-2-15 0-4 0-8 2-13 2-3 4-8 9-12 2-2 4-4 7-4 4-1 8-2 13-2 6 0 13 1 21 3z m20 58c-6 3-11 6-15 10-4 4-7 9-10 14-2 6-3 12-3 18 0 6 1 12 4 17 2 6 5 10 9 14 4 4 9 8 15 10 5 2 11 4 17 4 7 0 13-2 18-4 5-2 10-6 14-10 4-4 8-8 10-14 3-5 4-11 4-17 0-6-1-12-4-18-2-5-6-10-10-14-4-4-9-7-14-10-6-2-11-3-18-3-6 0-12 1-17 3z m28 16c4 2 7 4 9 6 3 3 5 6 6 9 2 3 3 7 3 11 0 4-1 7-3 10-1 4-3 7-6 9-2 3-5 5-9 6-3 2-7 2-11 2-4 0-7 0-11-2-3-1-6-3-9-6-2-2-4-5-6-9-1-3-2-6-2-10 0-4 1-8 2-11 2-3 4-6 6-9 3-2 6-4 9-6 4-1 7-2 11-2 4 0 8 1 11 2z m-260 88c-5 2-10 5-14 9-4 4-8 9-10 15-2 5-3 11-3 17 0 6 1 12 3 18 2 5 6 10 10 14 4 4 9 7 14 9 6 3 12 4 18 4 6 0 12-1 18-4 5-2 10-5 14-9 4-4 7-9 10-14 2-6 3-12 3-18 0-6-1-12-3-17-3-6-6-11-10-15-4-4-9-7-14-9-6-2-12-4-18-4-6 0-12 2-18 4z m274 0c-6 2-11 5-15 9-4 4-7 9-9 15-3 5-4 11-4 17 0 6 1 12 4 18 2 5 5 10 9 14 4 4 9 7 15 9 5 3 11 4 17 4 7 0 12-1 18-4 5-2 10-5 14-9 4-4 8-9 10-14 3-6 4-12 4-18 0-6-1-12-4-17-2-6-6-11-10-15-4-4-9-7-14-9-6-2-12-4-18-4-6 0-12 2-17 4z m-245 16c3 1 6 3 9 6 2 2 4 5 6 9 1 3 2 6 2 10 0 4-1 8-2 11-2 3-4 6-6 9-3 2-6 4-9 6-3 1-7 2-11 2-4 0-8-1-11-2-4-2-7-4-9-6-3-3-5-6-6-9-2-3-2-7-2-11 0-4 0-7 2-11 1-3 3-6 6-8 2-3 5-5 9-6 3-2 7-2 11-2 4 0 8 0 11 2z m273 0c4 1 7 3 9 6 3 2 5 5 6 9 2 3 3 6 3 10 0 4-1 8-3 11-1 3-3 6-6 9-2 2-5 4-9 6-3 1-7 2-11 2-4 0-7-1-11-2-3-2-6-4-9-6-2-3-4-6-6-9-1-3-2-7-2-11 0-4 1-7 2-11 2-3 4-6 6-8 3-3 6-5 9-6 4-2 7-2 11-2 4 0 8 0 11 2z m-302 87c-5 3-10 6-14 10-4 4-8 9-10 14-2 6-3 12-3 18 0 6 1 12 3 17 2 6 6 10 10 14 4 4 9 8 14 10 6 2 12 3 18 3 6 0 12-1 18-3 5-2 10-6 14-10 4-4 7-8 10-14 2-5 3-11 3-17 0-7-1-12-3-18-3-5-6-10-10-14-4-4-9-7-14-10-6-2-12-3-18-3-6 0-12 1-18 3z m274 0c-6 3-11 6-15 10-4 4-7 9-9 14-3 6-4 12-4 18 0 6 1 12 4 17 2 5 5 10 9 14 4 4 9 8 15 10 5 2 11 3 17 3 6 0 12-1 18-3 5-2 10-6 14-10 4-4 8-8 10-14 3-5 4-11 4-17 0-7-1-12-4-18-2-5-6-10-10-14-4-4-9-7-14-10-6-2-12-3-18-3-6 0-12 1-17 3z m-245 16c3 2 6 4 9 6 2 3 4 5 6 9 1 3 2 7 2 11 0 4-1 7-2 10-2 4-4 7-6 9-3 3-6 5-9 6-3 2-7 2-11 2-4 0-8 0-11-2-4-1-7-3-9-6-3-2-5-5-6-9-2-3-2-6-2-10 0-4 0-8 2-11 1-4 3-7 6-9 2-2 5-4 9-6 3-1 7-2 11-2 4 0 8 1 11 2z m273 0c4 2 7 4 9 6 3 2 5 5 6 9 2 3 3 7 3 11 0 4-1 7-3 10-1 4-3 7-6 9-2 3-5 5-9 6-3 2-7 2-11 2-4 0-7 0-11-2-3-1-6-3-9-6-2-2-4-5-6-9-1-3-2-6-2-10 0-4 1-8 2-11 2-4 4-7 6-9 3-2 6-4 9-6 4-1 7-2 11-2 4 0 8 1 11 2z m-217 46c-6 3-11 6-15 10-4 4-7 9-10 14-2 6-3 12-3 18 0 6 1 12 3 17 3 5 6 10 10 14 4 4 9 8 15 10 5 2 11 3 17 3 6 0 12-1 18-3 5-3 10-6 14-10 4-4 8-8 10-14 2-5 4-11 4-17 0-7-2-12-4-18-2-5-6-10-10-14-4-4-9-7-14-10-6-2-12-3-18-3-6 0-12 1-17 3z m105 0c-6 3-11 6-15 10-4 4-7 9-9 14-3 6-4 12-4 18 0 6 1 12 4 17 2 5 5 10 9 14 4 4 9 7 15 10 5 2 11 3 17 3 6 0 12-1 18-3 5-3 10-6 14-10 4-4 8-8 10-14 2-5 4-11 4-17 0-7-2-12-4-18-2-5-6-10-10-14-4-4-9-7-14-10-6-2-12-3-18-3-6 0-12 1-17 3z m-77 16c4 2 7 4 9 6 3 3 5 6 6 9 2 3 2 7 2 11 0 3 0 7-2 10-1 4-3 7-6 9-2 3-5 5-9 6-3 1-7 2-11 2-4 0-8-1-11-2-3-2-6-3-9-6-3-2-4-5-6-9-1-3-2-6-2-10 0-4 1-8 2-11 2-4 4-6 6-9 3-2 6-4 9-6 3-1 7-2 11-2 4 0 8 1 11 2z m105 0c4 2 7 4 9 6 3 3 5 6 6 9 2 3 3 7 3 11 0 3-1 7-3 10-1 4-3 7-6 9-2 3-5 5-9 6-3 1-7 2-11 2-4 0-7-1-11-2-3-1-6-3-9-6-2-2-4-5-6-9-1-3-2-6-2-10 0-4 1-8 2-11 2-4 4-6 6-9 3-2 6-4 9-6 4-1 7-2 11-2 4 0 8 1 11 2z"/>
<glyph glyph-name="stylesbold" unicode="&#38;" d="M257 495c22 0 43-3 64-9 20-5 40-13 57-23 18-11 34-23 49-37 14-15 27-31 37-48 11-17 19-36 25-56 5-20 8-41 8-63 0-21-2-41-5-58-3-16-8-32-13-45-6-13-12-25-19-35-7-11-14-20-22-28-7-7-14-14-21-21-7-6-13-11-18-16-6-6-12-11-20-16-8-5-16-9-24-13-9-4-17-7-26-9-8-2-16-3-23-3-6 0-11 1-16 2-4 1-8 3-11 6-6 6-9 11-12 17-2 5-3 11-3 17 0 5 1 11 3 17 1 6 3 11 5 17 2 6 4 11 5 17 2 6 3 11 3 17 0 4-1 9-3 14-2 4-5 9-9 13-5 5-12 9-20 11-8 2-17 3-26 3-10 0-19-1-29-2-10-2-19-3-28-5-8-2-16-3-23-5-7-1-12-2-16-2-3 0-9 1-15 3-7 2-15 5-23 9-8 3-16 8-25 14-8 6-16 13-22 21-7 8-13 17-17 27-5 10-7 21-7 33 0 22 3 43 9 63 5 20 13 39 24 56 10 17 23 33 37 48 15 14 31 26 49 37 18 10 37 18 57 23 21 6 42 9 64 9z m-131-295c6 0 10 1 15 3 5 2 9 5 12 8 4 3 6 7 8 12 2 5 3 10 3 15 0 5-1 10-3 14-2 5-4 9-8 12-3 4-7 6-12 8-5 2-9 3-15 3-5 0-10-1-15-3-4-2-8-4-12-8-3-3-6-7-8-12-2-4-3-9-3-14 0-5 1-10 3-15 2-5 5-9 8-12 4-3 8-6 12-8 5-2 10-3 15-3z m0 107c6 0 10 1 15 3 5 2 9 5 12 8 4 4 6 8 8 12 2 5 3 10 3 15 0 5-1 10-3 14-2 5-4 9-8 12-3 4-7 6-12 8-5 2-9 3-15 3-5 0-10-1-15-3-4-2-8-4-12-8-3-3-6-7-8-12-2-4-3-9-3-14 0-5 1-10 3-15 2-4 5-8 8-12 4-3 8-6 12-8 5-2 10-3 15-3z m88 65c5 0 10 1 14 3 5 2 9 4 13 8 3 3 6 7 8 12 2 4 3 9 3 14 0 5-1 10-3 15-2 4-5 8-8 12-4 3-8 6-13 8-4 2-9 3-14 3-6 0-11-1-15-3-5-2-9-5-12-8-4-4-7-8-9-12-2-5-3-10-3-15 0-5 1-10 3-14 2-5 5-9 9-12 3-4 7-6 12-8 4-2 9-3 15-3z m196 10c-6 0-10-1-15-3-5-2-9-4-12-8-4-3-6-7-8-12-2-4-3-9-3-14 0-5 1-10 3-15 2-4 4-8 8-12 3-3 7-6 12-8 5-2 9-3 15-3 5 0 10 1 15 3 4 2 8 5 12 8 3 4 6 8 8 12 2 5 3 10 3 15 0 5-1 10-3 14-2 5-5 9-8 12-4 4-8 6-12 8-5 2-10 3-15 3z m-125 27c0-5 1-10 3-14 1-5 4-9 8-12 3-4 7-6 12-8 4-2 9-3 15-3 5 0 10 1 14 3 5 2 9 4 13 8 3 3 6 7 8 12 2 4 3 9 3 14 0 5-1 10-3 15-2 4-5 8-8 12-4 3-8 6-13 8-4 2-9 3-14 3-6 0-11-1-15-3-5-2-9-5-12-8-4-4-7-8-8-12-2-5-3-10-3-15z m81-316c6 0 11 1 15 3 5 2 9 4 12 8 4 3 6 7 8 12 2 4 3 9 3 14 0 6-1 11-3 15-2 5-4 9-8 12-3 3-7 6-12 8-4 2-9 3-15 3-5 0-10-1-15-3-4-2-8-5-12-8-3-3-6-7-8-12-2-4-3-9-3-15 0-5 1-10 3-14 2-5 5-9 8-12 4-4 8-6 12-8 5-2 10-3 15-3z m44 107c5 0 10 1 15 3 4 2 8 5 12 8 3 3 6 7 8 12 2 5 3 10 3 15 0 5-1 10-3 14-2 5-5 9-8 12-4 4-8 6-12 8-5 2-10 3-15 3-6 0-10-1-15-3-5-2-9-4-12-8-4-3-6-7-8-12-2-4-3-9-3-14 0-5 1-10 3-15 2-5 4-9 8-12 3-3 7-6 12-8 5-2 9-3 15-3z"/>
<glyph glyph-name="addpage" unicode="&#39;" d="M137 32l0 87-86 0 0 17 86 0 0 85 17 0 0-85 86 0 0-17-86 0 0-87z m106 9c0 4 4 8 9 8l180 0c8 0 14 6 14 14l0 278-112 0c-4 0-8 3-8 8l0 112-192 0c-8 0-14-7-14-14l0-152c0-4-4-8-9-8-4 0-8 4-8 8l0 152c0 17 14 31 31 31l211 0c2 0 4-1 6-3l109-107c2-2 3-4 3-6l0-299c0-17-14-31-31-31l-180 0c-5 0-9 4-9 9z m203 317l0 0-103 101 0-101z"/>
<glyph glyph-name="copypage" unicode="&#40;" d="M69 44l0 354c0 16 13 29 29 29 4 0 8-4 8-9 0-4-4-8-8-8-7 0-12-6-12-12l0-354c0-7 5-12 12-12l267 0c7 0 12 5 12 12 0 5 4 8 9 8 4 0 8-3 8-8 0-16-13-29-29-29l-267 0c-16 0-29 13-29 29z m51 51l0 354c0 16 13 29 29 29l193 0 104-104 0-279c0-16-13-29-29-29l-268 0c-16 0-29 13-29 29z m309 0l0 263-95 0c-4 0-8 4-8 8l0 95-177 0c-7 0-12-5-12-12l0-354c0-6 5-12 12-12l268 0c6 0 12 6 12 12z m-8 280l-78 78 0-78z"/>
<glyph glyph-name="deletepage" unicode="&#41;" d="M243 41c0 4 4 8 9 8l179 0c8 0 15 6 15 14l0 278-112 0c-4 0-8 3-8 8l0 112-192 0c-8 0-14-7-14-14l0-152c0-4-4-8-9-8-4 0-8 4-8 8l0 152c0 17 14 31 31 31l210 0c3 0 5-1 6-3l110-107c2-2 3-4 3-6l0-299c0-17-15-31-32-31l-179 0c-5 0-9 4-9 9z m-178-5l-10 9 69 68-69 69 10 9 68-68 68 68 9-9-68-69 68-68-9-9-68 68z m381 322l0 0-103 101 0-101z"/>
<glyph glyph-name="movepagedown" unicode="&#42;" d="M110 32c1 0 0 0 0 0l0 0c0 0-1 0-1 0 0 0-1 1-1 1 0 0 0 0-1 0 0 0 0 0 0 0 0 0 0 0 0 1-1 0-1 0-1 0 0 0 0 0 0 0 0 0-1 0-1 1 0 0 0 0 0 0l-60 68c-3 4-3 9 1 13 3 3 9 2 12-1l45-52 0 149c0 5 4 9 8 9 5 0 9-4 9-9l0-149 45 52c3 3 9 4 12 1 4-4 4-9 1-13l-60-68c0 0 0 0 0 0-1-1-1-1-1-1 0 0 0 0 0 0 0 0 0 0 0 0-1 0-1-1-1-1 0 0 0 0-1 0 0 0 0 0 0 0 0 0 0 0 0 0-1 0-1-1-1-1 0 0 0 0 0 0-1 0-1 0-1 0-1 0-1 0-1 0-1 0-1 0-1 0 0 0 0 0-1 0z m133 9c0 4 4 8 9 8l179 0c8 0 15 6 15 14l0 278-112 0c-4 0-8 3-8 8l0 112-192 0c-8 0-14-7-14-14l0-152c0-4-4-8-9-8-4 0-8 4-8 8l0 152c0 17 14 31 31 31l210 0c3 0 5-1 6-3l110-107c2-2 3-4 3-6l0-299c0-17-15-31-32-31l-179 0c-5 0-9 4-9 9z m203 317l0 0-103 101 0-101z"/>
<glyph glyph-name="movepageup" unicode="&#43;" d="M243 41c0 4 4 8 9 8l179 0c8 0 15 6 15 14l0 278-112 0c-4 0-8 3-8 8l0 112-192 0c-8 0-14-7-14-14l0-152c0-4-4-8-9-8-4 0-8 4-8 8l0 152c0 17 14 31 31 31l210 0c3 0 5-1 6-3l110-107c2-2 3-4 3-6l0-299c0-17-15-31-32-31l-179 0c-5 0-9 4-9 9z m-140 0l0 148-45-51c-3-4-9-4-12-1-4 3-4 9-1 12l60 69c0 0 0 0 0 0 0 0 1 0 1 0 0 1 0 1 0 1 0 0 0 0 0 0 1 0 1 0 1 0 0 1 0 1 0 1 0 0 1 0 1 0 1 0 2 1 3 1 2 0 4-1 6-2 0 0 0-1 0-1 0 0 0 0 0 0 0 0 1 0 1 0 0 0 0 0 0 0l60-69c3-3 3-9-1-12-3-3-9-3-12 1l-45 51 0-148c0-5-4-9-9-9-4 0-8 4-8 9z m343 317l0 0-103 101 0-101z"/>
<glyph glyph-name="alignbottom" unicode="&#44;" d="M344 54l0 281c0 13 10 23 22 23l75 0c12 0 22-10 22-23l0-281c0-12-10-22-22-22l-75 0c-12 0-22 10-22 22z m-310 0l0 179c0 12 10 22 23 22l75 0c12 0 22-10 22-22l0-179c0-12-10-22-22-22l-75 0c-13 0-23 10-23 22z m155 1l0 384c0 12 10 22 22 22l76 0c12 0 22-10 22-22l0-384c0-13-10-23-22-23l-76 0c-12 0-22 10-22 23z m257-1l0 281c0 3-3 6-5 6l-75 0c-3 0-5-3-5-6l0-281c0-3 2-5 5-5l75 0c2 0 5 2 5 5z m-309 0l0 179c0 2-2 5-5 5l-75 0c-3 0-6-3-6-5l0-179c0-3 3-5 6-5l75 0c3 0 5 2 5 5z m155 1l0 384c0 2-3 5-5 5l-76 0c-3 0-5-3-5-5l0-384c0-3 2-5 5-5l76 0c2 0 5 2 5 5z"/>
<glyph glyph-name="aligncenter" unicode="&#45;" d="M86 55l0 75c0 12 10 22 22 22l281 0c12 0 22-10 22-22l0-75c0-12-10-22-22-22l-281 0c-12 0-22 10-22 22z m308 0l0 75c0 3-2 5-5 5l-281 0c-3 0-5-2-5-5l0-75c0-3 2-5 5-5l281 0c3 0 5 2 5 5z m-360 154l0 75c0 12 10 22 23 22l384 0c12 0 22-10 22-22l0-75c0-13-10-23-22-23l-384 0c-13 0-23 10-23 23z m412 0l0 75c0 3-3 5-5 5l-384 0c-3 0-6-2-6-5l0-75c0-3 3-6 6-6l384 0c2 0 5 3 5 6z m-309 154l0 75c0 13 10 23 22 23l179 0c12 0 22-10 22-23l0-75c0-12-10-22-22-22l-179 0c-12 0-22 10-22 22z m206 0l0 75c0 3-2 5-5 5l-179 0c-2 0-5-2-5-5l0-75c0-3 3-5 5-5l179 0c3 0 5 2 5 5z"/>
<glyph glyph-name="alignleft" unicode="&#46;" d="M34 55l0 75c0 12 10 22 23 22l281 0c12 0 22-10 22-22l0-75c0-12-10-22-22-22l-281 0c-13 0-23 10-23 22z m309 0l0 75c0 3-2 5-5 5l-281 0c-3 0-6-2-6-5l0-75c0-3 3-5 6-5l281 0c3 0 5 2 5 5z m-309 154l0 75c0 12 10 22 23 22l384 0c12 0 22-10 22-22l0-75c0-13-10-23-22-23l-384 0c-13 0-23 10-23 23z m412 0l0 75c0 3-3 5-5 5l-384 0c-3 0-6-2-6-5l0-75c0-3 3-6 6-6l384 0c2 0 5 3 5 6z m-412 154l0 75c0 13 10 23 23 23l178 0c12 0 22-10 22-23l0-75c0-12-10-22-22-22l-178 0c-13 0-23 10-23 22z m206 0l0 75c0 3-2 5-5 5l-178 0c-3 0-6-2-6-5l0-75c0-3 3-5 6-5l178 0c3 0 5 2 5 5z"/>
<glyph glyph-name="alignmiddle" unicode="&#47;" d="M189 55l0 384c0 12 10 22 22 22l76 0c12 0 22-10 22-22l0-384c0-13-10-23-22-23l-76 0c-12 0-22 10-22 23z m103 0l0 384c0 2-3 5-5 5l-76 0c-3 0-5-3-5-5l0-384c0-3 2-5 5-5l76 0c2 0 5 2 5 5z m52 51l0 281c0 12 10 22 22 22l75 0c12 0 22-10 22-22l0-281c0-13-10-23-22-23l-75 0c-12 0-22 10-22 23z m102 0l0 281c0 3-3 5-5 5l-75 0c-3 0-5-2-5-5l0-281c0-3 2-5 5-5l75 0c2 0 5 2 5 5z m-412 51l0 178c0 13 10 23 23 23l75 0c12 0 22-10 22-23l0-178c0-12-10-22-22-22l-75 0c-13 0-23 10-23 22z m103 0l0 178c0 3-2 6-5 6l-75 0c-3 0-6-3-6-6l0-178c0-3 3-5 6-5l75 0c3 0 5 2 5 5z"/>
<glyph glyph-name="alignright" unicode="&#58;" d="M137 55l0 75c0 12 10 22 22 22l282 0c12 0 22-10 22-22l0-75c0-12-10-22-22-22l-282 0c-12 0-22 10-22 22z m309 0l0 75c0 3-3 5-5 5l-282 0c-2 0-5-2-5-5l0-75c0-3 3-5 5-5l282 0c2 0 5 2 5 5z m-412 154l0 75c0 12 10 22 23 22l384 0c12 0 22-10 22-22l0-75c0-13-10-23-22-23l-384 0c-13 0-23 10-23 23z m412 0l0 75c0 3-3 5-5 5l-384 0c-3 0-6-2-6-5l0-75c0-3 3-6 6-6l384 0c2 0 5 3 5 6z m-206 154l0 75c0 13 10 23 22 23l179 0c12 0 22-10 22-23l0-75c0-12-10-22-22-22l-179 0c-12 0-22 10-22 22z m206 0l0 75c0 3-3 5-5 5l-179 0c-3 0-5-2-5-5l0-75c0-3 2-5 5-5l179 0c2 0 5 2 5 5z"/>
<glyph glyph-name="aligntop" unicode="&#59;" d="M189 55l0 384c0 12 10 22 22 22l76 0c12 0 22-10 22-22l0-384c0-13-10-23-22-23l-76 0c-12 0-22 10-22 23z m103 0l0 384c0 2-3 5-5 5l-76 0c-3 0-5-3-5-5l0-384c0-3 2-5 5-5l76 0c2 0 5 2 5 5z m52 102l0 281c0 13 10 23 22 23l75 0c12 0 22-10 22-23l0-281c0-12-10-22-22-22l-75 0c-12 0-22 10-22 22z m102 0l0 281c0 3-3 5-5 5l-75 0c-3 0-5-2-5-5l0-281c0-3 2-5 5-5l75 0c2 0 5 2 5 5z m-412 103l0 178c0 13 10 23 23 23l75 0c12 0 22-10 22-23l0-178c0-12-10-22-22-22l-75 0c-13 0-23 10-23 22z m103 0l0 178c0 3-2 5-5 5l-75 0c-3 0-6-2-6-5l0-178c0-3 3-5 6-5l75 0c3 0 5 2 5 5z"/>
<glyph glyph-name="bringtobottom" unicode="&#60;" d="M300 27l13 11c3-4 8-6 14-6l11 0 0-17-11 0c-11 0-20 5-27 12z m73-12l0 17 34 0 0-17z m68 0l0 17 4 0c7 0 13 4 16 11l16-7c-6-13-18-21-32-21z m-150 50l0 34 18 0 0-34z m172 8l0 34 17 0 0-34z m-360 79l0 114 17 0 0-114c0-19 15-34 34-34l108 0 0-17-108 0c-28 0-51 23-51 51z m188-18l0 34c0 11 5 20 12 26l12-12c-4-4-6-9-6-14l0-34z m172 8l0 26c0 2 0 4-1 5l16 5c1-3 2-6 2-10l0-26z m-121 44l0 17 34 0 0-17z m68 0l0 17 34 0 0-17z m-33 43l0 112c0 13-8 25-20 31l-6 2c-5 0-30 0-62 0-29 1-58 1-60 1l0 17c2 0 31 0 60 0 29-1 60-1 65-1l2-1c22-5 38-26 38-49l0-112z m-351 72l13 11c3-3 8-6 13-6l12 0 0-17-12 0c-10 0-20 5-26 12z m72-12l0 17 35 0 0-17z m69 0l0 17 3 0c8 0 14 5 17 11l16-7c-6-12-18-21-33-21z m-150 50l0 35 17 0 0-35z m172 8l0 35 17 0 0-35z m-172 61l0 34c0 11 5 20 12 27l11-13c-3-3-6-8-6-14l0-34z m172 8l0 26c0 2-1 4-1 6l16 5c1-4 2-7 2-11l0-26z m-122 45l0 17 35 0 0-17z m69 0l0 17 34 0 0-17z"/>
<glyph glyph-name="bringtotop" unicode="&#61;" d="M315 17l6 16c1-1 4-1 6-1l25 0 0-17-25 0c-4 0-9 1-12 2z m71-2l0 17 34 0 0-17z m71 2l-6 16c7 3 12 9 12 17l0 2 17 0 0-2c0-15-9-28-23-33z m-166 35l0 34 18 0 0-34z m172 35l0 34 17 0 0-34z m-360 65l0 189c0 28 23 51 51 51l189 0c28 0 51-23 51-51l0-189c0-28-23-51-51-51l-189 0c-28 0-51 23-51 51z m274 0l0 189c0 18-15 34-34 34l-189 0c-19 0-34-16-34-34l0-189c0-19 15-34 34-34l189 0c19 0 34 15 34 34z m86 3l0 13c0 5-2 10-6 13l12 12c7-6 11-15 11-25l0-13z m-55 31l0 17 23 0 0-17z m-342 103l0 17 23 0 0-17z m-49 35l0 13 17 0 0-13c0-5 2-9 6-13l-12-12c-7 7-11 16-11 25z m0 48l0 34 17 0 0-34z m172 34l0 35 17 0 0-35z m-172 34l0 2c0 15 10 28 23 33l6-16c-7-2-12-9-12-17l0-2z m153 21l-25 0 0 17 25 0c5 0 9-1 12-2l-5-17c-2 1-4 2-7 2z m-93 0l0 17 34 0 0-17z"/>
<glyph glyph-name="distributehorizontal" unicode="&#62;" d="M206 66l0 172-69 0 0-103-103 0 0 223 103 0 0-103 69 0 0 171 103 0 0-171 68 0 0 103 103 0 0-223-103 0 0 103-68 0 0-172z m85 17l0 326-68 0 0-326z m-171 69l0 189-69 0 0-189z m343 0l0 189-69 0 0-189z"/>
<glyph glyph-name="distributevertical" unicode="&#63;" d="M137 32l0 103 103 0 0 68-171 0 0 103 171 0 0 69-103 0 0 103 223 0 0-103-103 0 0-69 172 0 0-103-172 0 0-68 103 0 0-103z m206 17l0 69-189 0 0-69z m68 172l0 68-325 0 0-68z m-68 171l0 69-189 0 0-69z"/>
<glyph glyph-name="fliphprizontal" unicode="&#64;" d="M240 23l0 35c0 4 4 8 9 8 4 0 8-4 8-8l0-35c0-4-4-8-8-8-5 0-9 4-9 8z m-197 43l-8 12 154 369 17-4 0-368-9-9z m257 0l-9 9 0 368 17 4 154-369-8-12z m-111 17l0 318-133-318z m51 9l0 34c0 5 4 9 9 9 4 0 8-4 8-9l0-34c0-5-4-9-8-9-5 0-9 4-9 9z m201-9l-132 318 0-318z m-201 78l0 34c0 5 4 8 9 8 4 0 8-3 8-8l0-34c0-5-4-9-8-9-5 0-9 4-9 9z m0 68l0 34c0 5 4 9 9 9 4 0 8-4 8-9l0-34c0-5-4-8-8-8-5 0-9 3-9 8z m0 69l0 34c0 5 4 9 9 9 4 0 8-4 8-9l0-34c0-5-4-9-8-9-5 0-9 4-9 9z m0 68l0 35c0 4 4 8 9 8 4 0 8-4 8-8l0-35c0-4-4-8-8-8-5 0-9 4-9 8z m0 69l0 34c0 5 4 9 9 9 4 0 8-4 8-9l0-34c0-5-4-9-8-9-5 0-9 4-9 9z"/>
<glyph glyph-name="flipvertical" unicode="&#91;" d="M417 33l-369 154 3 16 369 0 9-8 0-154z m-6 20l0 133-317 0z m-394 193c0 5 4 9 9 9l34 0c5 0 9-4 9-9 0-4-4-8-9-8l-34 0c-5 0-9 4-9 8z m69 0c0 5 4 9 8 9l35 0c4 0 8-4 8-9 0-4-4-8-8-8l-35 0c-4 0-8 4-8 8z m68 0c0 5 4 9 9 9l34 0c5 0 9-4 9-9 0-4-4-8-9-8l-34 0c-5 0-9 4-9 8z m69 0c0 5 4 9 8 9l35 0c4 0 8-4 8-9 0-4-4-8-8-8l-35 0c-4 0-8 4-8 8z m68 0c0 5 4 9 9 9l34 0c5 0 9-4 9-9 0-4-4-8-9-8l-34 0c-5 0-9 4-9 8z m69 0c0 5 4 9 9 9l34 0c5 0 8-4 8-9 0-4-3-8-8-8l-34 0c-5 0-9 4-9 8z m69 0c0 5 3 9 8 9l34 0c5 0 9-4 9-9 0-4-4-8-9-8l-34 0c-5 0-8 4-8 8z m-378 43l-3 17 369 154 12-8 0-154-9-9z m360 17l0 133-317-133z"/>
<glyph glyph-name="group" unicode="&#93;" d="M34 32l0 51 52 0 0-51z m395 0l0 17-258 0 0 122c-25 4-50 16-71 35-60 53-65 146-11 205 54 60 146 65 206 11 24-22 40-51 45-81l123 0 0-258 17 0 0-51z m0 34l0 17 17 0 0 240-257 0 0-257z m-258 122l0 153 152 0c-5 25-19 50-40 69-53 47-134 43-181-10-48-53-44-134 9-182 18-16 39-26 60-30z m-137 238l0 52 52 0 0-52z m395 0l0 52 51 0 0-52z"/>
<glyph glyph-name="movebackwards" unicode="&#94;" d="M164 42l9 14c7-4 15-7 24-7l4 0 0-17-4 0c-12 0-24 4-33 10z m72-10l0 17 34 0 0-17z m68 0l0 17 34 0 0-17z m69 0l0 17 34 0 0-17z m71 5l-7 16c9 3 16 10 21 19l15-8c-6-12-16-22-29-27z m-307 54l0 19 17 0 0-19c0-4 1-9 2-13l-16-5c-2 6-3 12-3 18z m326 10l0 34 17 0 0-34z m-429 93l0 224c0 33 27 60 60 60l224 0c29 0 53-21 58-49 1-3 1-7 1-11l-17 0c0 3 0 5-1 8-3 20-21 35-41 35l-224 0c-24 0-43-19-43-43l0-224c0-23 19-42 43-42l0-17c-33 0-60 27-60 59z m103-50l0 34 17 0 0-34z m326 25l0 35 17 0 0-35z m-326 44l0 34 17 0 0-34z m326 25l0 34 17 0 0-34z m-326 43l0 34 17 0 0-34z m326 26l0 8c0 8-2 15-5 21l15 8c4-9 7-18 7-29l0-8z m-307 21l-16 5c4 13 12 24 23 32l10-15c-8-5-14-13-17-22z m265 30l-15 0 0 17 15 0c8 0 15-2 22-5l-6-16c-5 3-11 4-16 4z m-220 0l0 17 34 0 0-17z m68 0l0 17 35 0 0-17z m69 0l0 17 34 0 0-17z"/>
<glyph glyph-name="moveforwards" unicode="&#95;" d="M163 42l10 15c6-5 15-8 24-8l3 0 0-17-3 0c-13 0-24 4-34 10z m72-10l0 17 34 0 0-17z m68 0l0 17 34 0 0-17z m69 0l0 17 34 0 0-17z m71 4l-6 16c8 4 16 11 20 19l15-9c-6-11-16-20-29-26z m-306 55l0 20 17 0 0-20c0-4 1-8 2-12l-16-5c-2 6-3 11-3 17z m326 9l0 34 17 0 0-34z m-429 94l0 224c0 33 27 60 60 60l224 0c32 0 59-27 59-60l0-224c0-33-27-59-59-59l-224 0c-33 0-60 26-60 59z m326 0l0 224c0 24-19 43-42 43l-224 0c-24 0-43-19-43-43l0-224c0-23 19-42 43-42l224 0c23 0 42 19 42 42z m103-26l0 35 17 0 0-35z m0 69l0 34 17 0 0-34z m0 69l0 9c0 7-2 14-5 20l15 8c5-8 7-18 7-28l0-9z m-42 52l-14 0 0 17 14 0c8 0 16-2 24-5l-7-16c-6 2-11 4-17 4z"/>
<glyph glyph-name="sameheight" unicode="&#96;" d="M34 32l0 17 86 0 0-17z m120 0l0 446 137 0 0-446z m172 0l0 446 137 0 0-446z m-52 17l0 412-103 0 0-412z m172 0l0 412-103 0 0-412z m-369 1l-43 68 35 0 0 85 17 0 0-85 34 0z m-8 256l0 86-35 0 43 68 43-68-34 0 0-86z m-35 155l0 17 86 0 0-17z"/>
<glyph glyph-name="samesize" unicode="&#123;" d="M34 32l0 17 86 0 0-17z m120 0l0 326 326 0 0-326z m309 17l0 292-292 0 0-292z m-386 1l-43 68 35 0 0 51 17 0 0-51 34 0z m-8 171l0 51-35 0 43 68 43-68-34 0 0-51z m-35 120l0 17 86 0 0-17z m120 51l0 86 17 0 0-86z m309 0l0 86 17 0 0-86z m-223 0l-68 43 68 43 0-35 51 0 0-17-51 0z m154 0l0 34-51 0 0 17 51 0 0 35 68-43z"/>
<glyph glyph-name="samewidth" unicode="&#124;" d="M34 49l0 137 446 0 0-137z m429 17l0 103-412 0 0-103z m-429 155l0 137 446 0 0-137z m429 17l0 103-412 0 0-103z m0 154l0 86 17 0 0-86z m-429 0l0 86 17 0 0-86z m360 0l0 34-85 0 0 17 85 0 0 35 68-43z m-274 0l-67 43 67 43 0-35 86 0 0-17-86 0z"/>
<glyph glyph-name="ungroup" unicode="&#125;" d="M154 32l0 51 17 0 0 88c-25 4-50 16-71 35-60 53-65 146-11 205 54 60 146 65 206 11 24-22 40-51 45-81l89 0 0 17 51 0 0-52-17 0 0-223 17 0 0-51-51 0 0 17-223 0 0-17z m275 34l0 17 17 0 0 223-17 0 0 17-223 0 0-17-17 0 0-223 17 0 0-17z m-395 86l0 51 52 0 0-51z m137 36l0 118-17 0 0 52 52 0 0-17 117 0c-5 25-19 50-40 69-53 47-134 43-181-10-48-53-44-134 9-182 18-16 39-26 60-30z m-137 238l0 52 52 0 0-52z m275 0l0 52 51 0 0-52z"/>
<glyph glyph-name="account" unicode="&#126;" d="M69 57c-3 41 10 84 40 118 62 72 176 83 253 25 47-36 70-90 66-143 0-5-5-8-9-8-5 1-8 5-8 9 4 48-17 96-60 129-70 52-173 42-229-23-27-31-39-69-36-106 1-4-3-8-8-9-4 0-8 3-9 8z m109 223c-47 38-55 109-16 156 39 48 109 56 157 17 47-39 55-109 16-157-38-48-109-55-157-16z m144 27c33 40 26 100-14 133-41 32-100 26-133-14-32-41-26-100 14-133 41-33 100-27 133 14z"/>
<glyph glyph-name="add" unicode="&#92;" d="M240 83l0 172-171 0 0 17 171 0 0 171 17 0 0-171 172 0 0-17-172 0 0-172z"/>
<glyph glyph-name="back" unicode="&#57344;" d="M121 74c-95 70-115 204-45 299 70 96 204 116 300 46 95-70 115-205 45-300-70-95-204-115-300-45z m286 55c65 88 46 211-41 276-88 65-212 46-276-42-65-87-46-211 42-275 87-65 211-46 275 41z m-206 42l-79 70-1 2-1 4 1 2 2 4 78 68c4 3 9 3 12-1 3-3 3-8 0-12l-62-53 218 0c4 0 8-4 8-9 0-4-4-8-8-8l-218 0 62-54c3-3 3-8 0-12-3-3-8-4-12-1z"/>
<glyph glyph-name="backsmall" unicode="&#57345;" d="M152 115c-72 53-88 156-35 228 54 72 156 88 228 34 73-53 88-155 35-227-54-73-156-88-228-35z m214 45c48 65 34 156-31 204-65 47-156 33-204-31-47-65-34-156 31-204 65-48 156-34 204 31z m-150 36l-51 45-1 2-1 4 1 2 2 4 50 44c4 3 9 3 12-1 3-4 3-9-1-12l-33-29 132 0c4 0 8-4 8-9 0-4-4-8-8-8l-132 0 33-29c4-3 4-9 1-12-3-4-8-4-12-1z"/>
<glyph glyph-name="close" unicode="&#57346;" d="M133 122l-9 9 124 124-124 124 9 9 124-124 124 124 9-9-124-124 124-124-9-9-124 124z"/>
<glyph glyph-name="contextmenu" unicode="&#57347;" d="M333 3l-47 103-63-61 0 290 209-209-90 0 44-98z m8 23l22 10-48 107 76 0-151 150 0-208 52 51z m-307 186l0 257c0 5 4 9 9 9l428 0c5 0 9-4 9-9l0-257c0-5-4-9-9-9l-83 0c-4 0-8 4-8 9 0 5 4 9 8 9l75 0 0 240-412 0 0-240 129 0c5 0 9-4 9-9 0-5-4-9-9-9l-137 0c-5 0-9 4-9 9z m52 103c0 5 4 8 8 8l103 0c5 0 9-3 9-8 0-5-4-9-9-9l-103 0c-4 0-8 4-8 9z m223 0c0 5 3 8 8 8l103 0c5 0 9-3 9-8 0-5-4-9-9-9l-103 0c-5 0-8 4-8 9z m-223 51c0 5 4 9 8 9l326 0c5 0 9-4 9-9 0-4-4-8-9-8l-326 0c-4 0-8 4-8 8z m0 52c0 4 4 8 8 8l326 0c5 0 9-4 9-8 0-5-4-9-9-9l-326 0c-4 0-8 4-8 9z"/>
<glyph glyph-name="copy" unicode="&#57348;" d="M120 44l0 354c0 16 13 29 29 29l193 0 104-104 0-279c0-16-13-29-29-29l-268 0c-16 0-29 13-29 29z m309 0l0 263-95 0c-4 0-8 4-8 9l0 94-177 0c-7 0-12-6-12-12l0-354c0-7 5-12 12-12l268 0c6 0 12 5 12 12z m-378 51l0 354c0 16 13 29 29 29l190 0c5 0 8-3 8-8 0-5-3-9-8-9l-190 0c-6 0-11-5-11-12l0-354c0-6 5-12 11-12l23 0c4 0 8-3 8-8 0-5-4-9-8-9l-23 0c-16 0-29 13-29 29z m125-20c0 2 2 4 4 4l206 0c2 0 4-2 4-4 0-3-2-4-4-4l-206 0c-2 0-4 1-4 4z m0 34c0 2 2 4 4 4l206 0c2 0 4-2 4-4 0-2-2-4-4-4l-206 0c-2 0-4 2-4 4z m0 34c0 3 2 5 4 5l206 0c2 0 4-2 4-5 0-2-2-4-4-4l-206 0c-2 0-4 2-4 4z m0 35c0 2 2 4 4 4l206 0c2 0 4-2 4-4 0-3-2-5-4-5l-206 0c-2 0-4 2-4 5z m0 34c0 2 2 4 4 4l206 0c2 0 4-2 4-4 0-2-2-4-4-4l-206 0c-2 0-4 2-4 4z m0 34c0 3 2 5 4 5l206 0c2 0 4-2 4-5 0-2-2-4-4-4l-206 0c-2 0-4 2-4 4z m0 35c0 2 2 4 4 4l206 0c2 0 4-2 4-4 0-3-2-5-4-5l-206 0c-2 0-4 2-4 5z m0 34c0 2 2 4 4 4l120 0c2 0 4-2 4-4 0-2-2-4-4-4l-120 0c-2 0-4 2-4 4z m244 9l-77 78 0-78z m-244 25c0 2 2 4 4 4l120 0c2 0 4-2 4-4 0-2-2-4-4-4l-120 0c-2 0-4 2-4 4z"/>
<glyph glyph-name="cut" unicode="&#57349;" d="M332 25c-18 7-35 20-47 38l0-3-2 7c-1 1-2 3-2 4-5 9-8 19-10 28l0 1 0 2c0 2 0 2 0 3-5 46-15 74-25 90-11-15-24-42-33-88 0 0 0-1 0-1l0-3-9-22c-1-2-2-4-4-6-13-21-33-36-56-41-18-4-35-1-50 8-34 22-41 71-16 111 14 20 34 35 56 40 15 3 30 2 43-4l37 59c-22 51-71 161-80 178-14 29 13 58 14 59l8 8 96-187 113 177 7-9c1-1 25-33 8-59-5-8-26-45-97-171l31-61c14 4 29 4 44 0 21-7 40-24 51-46 22-42 10-90-26-108-9-5-20-8-32-7-6 0-12 1-19 3z m44 18c28 14 36 53 19 87-9 18-25 31-42 37-14 4-27 4-39-2l-7-4-42 84 2 3c58 104 92 163 99 175 7 10 3 22-1 31l-115-181-97 191c-5-8-10-20-5-30 10-19 61-135 83-184l2-4-50-79-7 4c-11 7-25 9-38 6-18-4-35-16-46-33-20-32-15-71 11-88 11-7 24-9 38-6 18 4 35 16 46 34 5 7 8 16 10 24l1 2c11 59 30 90 43 105l7 7 6-8c11-16 27-48 33-108l0-2 0 0c1-9 4-17 8-26 9-18 25-31 42-37 14-5 28-4 39 2z m-31 17c-13 4-25 15-32 28-12 25-7 53 11 62 7 4 16 4 25 1 13-4 24-14 32-28 12-25 7-53-11-62-5-2-10-3-15-3-3 0-7 1-10 2z m-232 13c-17 11-19 39-5 63 9 13 21 22 35 25 9 2 17 1 24-4 18-11 20-39 5-62-8-13-21-23-34-25-3-1-7-2-10-1-5 0-10 1-15 4z m249 2c10 6 12 24 4 40-5 11-13 18-22 21-2 1-4 1-6 1-2 0-5 0-6-1-11-6-13-24-4-40 5-10 13-18 22-21 5-1 9-1 12 0z m-227 10c8 2 18 9 24 19 9 15 9 34-1 40-1 1-4 2-6 2-2 0-4 0-6-1-9-2-18-8-24-18-10-15-9-34 0-40 3-2 8-3 13-2z m105 161c0 5 4 9 9 9 4 0 8-4 8-9 0-4-4-8-8-8-5 0-9 4-9 8z"/>
<glyph glyph-name="delete" unicode="&#57350;" d="M118 75l-1 11-22 306-26 0c-5 0-9 4-9 9 0 4 4 8 9 8l120 0 0 40c0 15 10 29 25 29l69 0c15 0 26-14 26-29l0-40 120 0c4 0 8-4 8-8 0-5-4-9-8-9l-27 0-22-306-1-11c-5-25-29-43-56-43l-149 0c-27 0-50 18-56 43z m245 12l22 305-273 0 22-305c0-21 18-38 40-38l149 0c23 0 40 17 40 38z m-192 22l0 223c0 5 4 9 9 9 5 0 9-4 9-9l0-223c0-5-4-8-9-8-5 0-9 3-9 8z m69 0l0 223c0 5 4 9 9 9 4 0 8-4 8-9l0-223c0-5-4-8-8-8-5 0-9 3-9 8z m69 0l0 223c0 5 3 9 8 9 5 0 9-4 9-9l0-223c0-5-4-8-9-8-5 0-8 3-8 8z m-18 300l0 40c0 7-4 12-8 12l-69 0c-4 0-8-5-8-12l0-40z"/>
<glyph glyph-name="dice" unicode="&#57351;" d="M266 53l0 187c0 20 14 42 32 49l158 64c18 7 33-3 33-23l0-187c0-20-15-42-33-49l-158-64c-18-7-32 3-32 23z m-49-22l-151 62c-18 7-32 29-32 49l0 186c0 20 14 31 32 24l151-61c18-7 32-29 32-49l0-187c0-20-14-31-32-24z m118 50c8 10 11 25 5 32-6 8-18 5-27-5-9-10-11-24-5-32 6-7 18-5 27 5z m-136 16c6 8 3 22-5 32-9 10-20 12-26 4-6-7-4-21 5-32 9-10 20-12 26-4z m189 86c9 11 11 25 5 32-6 8-18 6-27-4-8-11-11-25-5-33 6-7 18-5 27 5z m-273 67c6 7 3 22-5 32-9 10-20 12-26 4-6-7-3-22 5-32 9-10 20-12 26-4z m326 25c9 10 12 24 6 32-6 8-18 5-27-5-9-10-12-24-6-32 6-7 18-5 27 5z m-207 29l-169 72c-18 8-18 20 0 28l159 68c18 8 47 8 65 0l169-72c18-8 18-21 0-28l-159-68c-18-8-47-8-65 0z m79 33c3 7-7 13-22 14-15 2-29-3-32-9-3-6 6-13 21-14 15-1 30 3 33 9z m-68 30c3 6-7 12-22 14-15 1-30-3-33-10-3-6 7-12 22-14 15-1 30 3 33 10z m156 8c3 6-7 13-22 14-15 1-29-3-32-9-3-7 6-13 21-14 15-2 30 3 33 9z m-225 21c3 6-6 12-21 14-15 1-30-3-33-9-3-7 7-13 22-14 15-2 29 2 32 9z m156 8c3 7-6 13-21 14-15 1-30-3-33-9-3-7 7-13 22-14 15-1 29 3 32 9z m-68 29c3 7-7 13-22 14-14 2-29-2-32-9-3-6 7-13 22-14 15-1 29 3 32 9z"/>
<glyph glyph-name="edit" unicode="&#57352;" d="M453 38l-209 209c-1 1-3 4-29 59-1 3 0 5 1 7 2 2 5 2 7 1 58-23 60-25 61-26l210-210c4-4 4-12 0-17l-24-23c-4-5-12-5-17 0z m9 9l23 23-26 26-23-23z m-35 34l24 24-171 170-23-23z m-392 131l0 257c0 5 4 9 8 9l429 0c5 0 8-4 8-9l0-257c0-5-3-9-8-9l-83 0c-5 0-9 4-9 9 0 5 4 9 9 9l74 0 0 240-411 0 0-240 176 0c5 0 9-4 9-9 0-5-4-9-9-9l-185 0c-4 0-8 4-8 9z m215 50l20 20c-8 3-22 9-37 16 6-15 13-29 17-36z m-164 53c0 5 4 8 9 8l103 0c4 0 8-3 8-8 0-5-4-9-8-9l-103 0c-5 0-9 4-9 9z m223 0c0 5 4 8 9 8l103 0c4 0 8-3 8-8 0-5-4-9-8-9l-103 0c-5 0-9 4-9 9z m-223 51c0 5 4 9 9 9l326 0c4 0 8-4 8-9 0-4-4-8-8-8l-326 0c-5 0-9 4-9 8z m0 52c0 4 4 8 9 8l326 0c4 0 8-4 8-8 0-5-4-9-8-9l-326 0c-5 0-9 4-9 9z"/>
<glyph glyph-name="export" unicode="&#57353;" d="M34 59l0 153 0 0 0 1c0 1 0 2 1 2 0 1 0 1 0 1 0 1 1 2 1 2 0 0 0 1 0 1l86 103c0 0 0 0 0 0 1 0 1 1 1 1 1 0 1 1 2 1 0 0 1 0 1 0 1 1 2 1 2 1 0 0 0 0 1 0l68 0c5 0 9-4 9-9 0-5-4-9-9-9l-64 0-72-85 109 0c4 0 8-3 9-8 0-4 1-9 3-14 13-36 53-56 90-43 26 9 43 32 46 57 1 5 5 8 9 8l109 0-71 85-65 0c-5 0-9 4-9 9 0 5 4 9 9 9l69 0c0 0 0 0 0 0 0 0 0 0 1-1 0 0 0 0 0 0 1 0 1 0 2 0 0 0 0 0 0 0 1 0 2-1 3-2 0 0 0 0 0 0 0 0 0 0 0 0l86-103c0-1 1-2 1-1 0-2 0-2 0-2 0 0 1-1 1-2 0 0 0 0 0-1l0-154c0-5-4-9-9-9l-411 0c-5 0-9 4-9 9z m412 9l0 137-112 0-1-5c-7-26-27-49-55-59-46-16-96 8-112 54-1 2-2 5-3 8l0 2-112 0 0-137z m-206 197l0 173-54-61c-3-4-8-4-12-1-3 3-4 8 0 12l69 79 3 1 3 1 3-1 3-2 69-78c3-4 2-9-1-12-4-3-9-3-12 1l-54 61 0-173c0-5-4-9-8-9-5 0-9 4-9 9z"/>
<glyph glyph-name="fullscreen" unicode="&#57354;" d="M34 32l35 103 28-28 111 111c4 3 9 3 12 0 4-3 4-9 0-12l-111-112 28-28z m260 260c-3 3-3 8 0 12l111 111-28 28 103 35-34-103-29 28-111-111c-3-4-9-4-12 0z"/>
<glyph glyph-name="gallery" unicode="&#57355;" d="M189 41l0 120c0 4 3 8 8 8l120 0c5 0 9-4 9-8l0-120c0-5-4-9-9-9l-120 0c-5 0-8 4-8 9z m154 0l0 120c0 4 4 8 8 8l120 0c5 0 9-4 9-8l0-120c0-5-4-9-9-9l-120 0c-4 0-8 4-8 9z m-309 0l0 120c0 4 4 8 9 8l120 0c5 0 8-4 8-8l0-120c0-5-3-9-8-9l-120 0c-5 0-9 4-9 9z m275 8l0 103-103 0 0-103z m154 0l0 103-103 0 0-103z m-309 0l0 103-103 0 0-103z m35 146l0 120c0 5 3 8 8 8l120 0c5 0 9-3 9-8l0-120c0-5-4-9-9-9l-120 0c-5 0-8 4-8 9z m154 0l0 120c0 5 4 8 8 8l120 0c5 0 9-3 9-8l0-120c0-5-4-9-9-9l-120 0c-4 0-8 4-8 9z m-309 0l0 120c0 5 4 8 9 8l120 0c5 0 8-3 8-8l0-120c0-5-3-9-8-9l-120 0c-5 0-9 4-9 9z m275 8l0 103-103 0 0-103z m154 0l0 103-103 0 0-103z m-309 0l0 103-103 0 0-103z m35 146l0 120c0 5 3 9 8 9l120 0c5 0 9-4 9-9l0-120c0-5-4-8-9-8l-120 0c-5 0-8 3-8 8z m154 0l0 120c0 5 4 9 8 9l120 0c5 0 9-4 9-9l0-120c0-5-4-8-9-8l-120 0c-4 0-8 3-8 8z m-309 0l0 120c0 5 4 9 9 9l120 0c5 0 8-4 8-9l0-120c0-5-3-8-8-8l-120 0c-5 0-9 3-9 8z m275 9l0 103-103 0 0-103z m154 0l0 103-103 0 0-103z m-309 0l0 103-103 0 0-103z"/>
<glyph glyph-name="grapholite" unicode="&#57356;" d="M265 31l-127 155 1 1-2 0-34 128 0-1-43 164 152-75 0 0 118-58-1-2 2 1 115-140 0-31-128 156-123 60-75-61 34-131 137-166z m69 0l-154 187 15 12 164-199z m112 63l-169 206 15 13 154-188z"/>
<glyph glyph-name="import" unicode="&#57357;" d="M34 41l0 153 0 0 0 1c0 1 0 1 1 2 0 0 0 0 0 1 0 1 1 1 1 2 0 0 0 0 0 0l86 103c0 0 0 0 0 0 1 1 1 1 1 1 1 1 1 1 2 1 0 1 1 1 1 1 1 0 2 0 2 0 0 0 0 0 1 0l68 0c5 0 9-4 9-8 0-5-4-9-9-9l-64 0-72-86 109 0c4 0 8-3 9-7 0-5 1-9 3-14 13-37 53-56 90-43 26 9 43 32 46 57 1 4 5 7 9 7l109 0-71 86-65 0c-5 0-9 4-9 9 0 4 4 8 9 8l69 0c0 0 0 0 0 0 0 0 0 0 1 0 0 0 0 0 0 0 1 0 1 0 2 0 0 0 0 0 0 0 1-1 2-1 3-2 0 0 0 0 0 0 0 0 0-1 0-1l86-103c0 0 1-1 1-1 0-1 0-1 0-1 0-1 1-1 1-2 0 0 0-1 0-1l0-154c0-5-4-9-9-9l-411 0c-5 0-9 4-9 9z m412 8l0 137-112 0-1-4c-7-27-27-49-55-59-46-16-96 8-112 53-1 3-2 6-3 9l0 1-112 0 0-137z m-198 257c0 0-1 0-1 0 0 0-1 1-1 1 0 0 0 0-1 0 0 0 0 0 0 0-1 0-1 1-1 1 0 0 0 0 0 0-1 0-1 0-1 0 0 1 0 1-1 1 0 0 0 0 0 0 0 0 0 0-1 1l0 0-51 79c-3 4-2 9 2 12 4 2 10 1 12-3l36-54 0 125c0 5 4 9 9 9 4 0 8-4 8-9l0-125 36 54c2 4 8 5 12 3 4-3 5-8 2-12l-51-79c-1-1-1-1-1-1 0 0 0 0 0 0-1 0-1 0-1-1 0 0 0 0-1 0 0 0 0 0 0 0l0 0c0 0 0 0 0 0 0 0 0-1 0-1-1 0-1 0-1 0 0 0-1 0-1 0 0 0-1-1-1-1 0 0-1 0-1 0 0 0 0 0 0 0 0 0 0 0-1 0z"/>
<glyph glyph-name="mainmenu" unicode="&#57358;" d="M133 122l-9 9 124 124-124 124 9 9 124-124 124 124 9-9-124-124 124-124-9-9-124 124z"/>
<glyph glyph-name="open" unicode="&#57359;" d="M56 76l-1 6-38 172 0 1c0 21 23 34 47 34l370 0c22 0 46-13 46-34l0-1-38-172-1-6c-4-17-25-27-45-27l-295 0c-20 0-40 10-45 27z m369 7l0 1 38 171-1 3c-2 6-12 14-28 14l-370 0c-17 0-27-8-29-15l-1-2 38-171 0-1c0-7 11-17 29-17l295 0c19 0 29 11 29 17z m-14 245c0 6 0 12 0 16 0 5 0 7 0 8l0 1c-2 4-4 5-5 5l-46 0 0 17 46 0c11 0 19-9 22-19 0-1 0-1 0-1 0-2 0-6 0-10 0-5 0-11 0-17 1-11 1-23 1-23l-18 0c0 0 0 12 0 23z m-325-23l0 54c0 21 11 50 32 50l96 0c15 0 25-15 31-29l1-5 28 0 0-17-41 0-1 7c-2 6-5 13-9 19-4 6-7 8-9 8l-96 0c-6 0-15-16-15-33l0-54z m223 44l0 100-28-32c-3-4-9-4-12-1-4 3-4 9-1 12l43 50 3 1 3 1 3-1 3-2 43-49c4-3 3-9 0-12-4-3-9-3-12 1l-28 32 0-100c0-5-4-8-9-8-5 0-8 3-8 8z"/>
<glyph glyph-name="paste" unicode="&#57360;" d="M206 39l0 276c0 13 11 24 24 24l151 0 82-82 0-218c0-13-11-24-25-24l-208 0c-13 0-24 11-24 24z m-172 0l2 396c0 5 4 8 8 8l102 0c-5 0-9 4-9 9 0 5 4 9 9 9l27 0 1 2c6 22 23 34 40 34 18-1 34-13 41-34l0-2 28 0c5 0 8-4 8-9 0-5-3-9-8-9 1 0 2 0 3 0l117 0c5 0 8-4 8-9l0-68c0-4-3-8-8-8-5 0-9 4-9 8l0 60-103 0 0-43c0-4-3-8-8-8l-137 0c-5 0-9 4-9 8l0 43-84 0-2-378 126 0c5 0 8-4 8-9 0-4-3-8-8-8l-134 0c-5 0-9 4-9 8z m412 0l0 199-77 0c-5 0-9 4-9 8l0 76-130 0c-4 0-7-3-7-7l0-276c0-4 3-7 7-7l208 0c4 0 8 3 8 7z m-202 19c0 2 2 4 5 4l160 0c2 0 4-2 4-4 0-3-2-5-4-5l-160 0c-3 0-5 2-5 5z m0 34c0 2 2 4 5 4l160 0c2 0 4-2 4-4 0-2-2-4-4-4l-160 0c-3 0-5 2-5 4z m0 34c0 3 2 5 5 5l160 0c2 0 4-2 4-5 0-2-2-4-4-4l-160 0c-3 0-5 2-5 4z m0 35c0 2 2 4 5 4l160 0c2 0 4-2 4-4 0-3-2-5-4-5l-160 0c-3 0-5 2-5 5z m0 34c0 2 2 4 5 4l160 0c2 0 4-2 4-4 0-3-2-4-4-4l-160 0c-3 0-5 1-5 4z m1 34c0 2 2 4 5 4l93 0c2 0 4-2 4-4 0-2-2-4-4-4l-93 0c-3 0-5 2-5 4z m196 26l-64 64 0-64z m-196 8c0 3 2 5 5 5l93 0c2 0 4-2 4-5 0-2-2-4-4-4l-93 0c-3 0-5 2-5 4z m29 129l0 43c0 5 4 8 9 8l-34 0c-5 0-8 3-9 8-3 20-16 28-26 28-11 1-23-8-26-28 0-4-4-8-8-8l-34 0c4 0 8-3 8-8l0-43z"/>
<glyph glyph-name="pasteformat" unicode="&#57361;" d="M189 32l0 171 34 0 0 50 223 68 0 88-35 0 0-68-377 0 0 137 377 0 0-52 52 0 0-117-223-69 0-37 34 0 0-171z m68 17l0 137-25 0c-1 0-1 0-1 0 0 0 0 0 0 0l-25 0 0-137z m137 309l0 60c0 0 0 0 0 0 0 0 0 0 0 0l0 43-343 0 0-103z"/>
<glyph glyph-name="pasteinplace" unicode="&#57362;" d="M206 39l0 276c0 13 11 24 24 24l151 0 82-82 0-218c0-13-11-24-25-24l-208 0c-13 0-24 11-24 24z m-172 0l2 396c0 5 4 8 8 8l102 0c-5 0-9 4-9 9 0 5 4 9 9 9l27 0 1 2c6 22 23 34 40 34 18-1 34-13 41-34l0-2 28 0c5 0 8-4 8-9 0-5-3-9-8-9 1 0 2 0 3 0l117 0c5 0 8-4 8-9l0-68c0-4-3-8-8-8-5 0-9 4-9 8l0 60-103 0 0-43c0-4-3-8-8-8l-137 0c-5 0-9 4-9 8l0 43-84 0-2-378 126 0c5 0 8-4 8-9 0-4-3-8-8-8l-134 0c-5 0-9 4-9 8z m412 0l0 199-77 0c-5 0-9 4-9 8l0 76-130 0c-4 0-7-3-7-7l0-276c0-4 3-7 7-7l208 0c4 0 8 3 8 7z m-202 19c0 2 2 4 5 4l160 0c2 0 4-2 4-4 0-3-2-5-4-5l-160 0c-3 0-5 2-5 5z m0 34c0 2 2 4 5 4l160 0c2 0 4-2 4-4 0-2-2-4-4-4l-160 0c-3 0-5 2-5 4z m0 34c0 3 2 5 5 5l160 0c2 0 4-2 4-5 0-2-2-4-4-4l-160 0c-3 0-5 2-5 4z m0 35c0 2 2 4 5 4l160 0c2 0 4-2 4-4 0-3-2-5-4-5l-160 0c-3 0-5 2-5 5z m0 34c0 2 2 4 5 4l160 0c2 0 4-2 4-4 0-3-2-4-4-4l-160 0c-3 0-5 1-5 4z m1 34c0 2 2 4 5 4l93 0c2 0 4-2 4-4 0-2-2-4-4-4l-93 0c-3 0-5 2-5 4z m-121 17l0 47-47 0 0 9 47 0 0 47 9 0 0-47 47 0 0-9-47 0 0-47z m317 9l-64 64 0-64z m-196 8c0 3 2 5 5 5l93 0c2 0 4-2 4-5 0-2-2-4-4-4l-93 0c-3 0-5 2-5 4z m29 129l0 43c0 5 4 8 9 8l-34 0c-5 0-8 3-9 8-3 20-16 28-26 28-11 1-23-8-26-28 0-4-4-8-8-8l-34 0c4 0 8-3 8-8l0-43z"/>
<glyph glyph-name="pin" unicode="&#57363;" d="M51 68l131 160-77 80 7 6c44 34 73 37 124 23l19-5 83 79-23 25 49 47 119-124-50-47-24 25-83-79 5-16c14-46 20-83-30-127l-6-6-78 82z m244 65l3 2c38 40 27 70 10 123l-1 5 103 98 24-25 24 24-94 99-25-24 24-24-103-99-5 2c-56 18-82 20-116-2l-8-6z"/>
<glyph glyph-name="pinbold" unicode="&#57364;" d="M97 68l112 159-68 62c39 36 64 37 124 22l78 86-23 21 31 34 103-93-31-35-23 21-77-86c19-49 33-80-11-126l-67 62z"/>
<glyph glyph-name="print" unicode="&#57365;" d="M17 60l0 98c0 25 20 45 45 45l373 0c25 0 45-20 45-45l0-98c0-25-20-45-45-45l-373 0c-25 0-45 20-45 45z m446 0l0 98c0 16-13 28-28 28l-373 0c-15 0-28-12-28-28l0-98c0-15 13-28 28-28l373 0c15 0 28 13 28 28z m-412 58l0 51 103 0 0-51z m343 25c0 15 12 26 26 26 14 0 26-11 26-26 0-14-12-25-26-25-14 0-26 11-26 25z m-257-8l0 17-68 0 0-17z m292 8c0 5-4 9-9 9-5 0-9-4-9-9 0-4 4-8 9-8 5 0 9 4 9 8z m-326 86l0 223c0 14 11 26 25 26l158 0c3 0 5-1 6-3l83-82c1-2 2-4 2-6l0-158c0-5-4-8-8-8-5 0-9 3-9 8l0 146-74 0c-4 0-8 4-8 9l0 77-150 0c-4 0-8-4-8-9l0-223c0-5-4-8-9-8-4 0-8 3-8 8z m38 17c0 3 2 5 5 5l188 0c3 0 5-2 5-5 0-2-2-4-5-4l-188 0c-3 0-5 2-5 4z m0 35c0 2 2 4 5 4l188 0c3 0 5-2 5-4 0-3-2-5-5-5l-188 0c-3 0-5 2-5 5z m0 34c0 2 2 4 5 4l188 0c3 0 5-2 5-4 0-3-2-4-5-4l-188 0c-3 0-5 1-5 4z m0 34c0 2 2 4 5 4l188 0c3 0 5-2 5-4 0-2-2-4-5-4l-188 0c-3 0-5 2-5 4z m0 34c0 3 2 5 5 5l85 0c3 0 5-2 5-5 0-2-2-4-5-4l-85 0c-3 0-5 2-5 4z m210 9l-56 56 0-56z m-210 26c0 2 2 4 5 4l85 0c3 0 5-2 5-4 0-3-2-5-5-5l-85 0c-3 0-5 2-5 5z"/>
<glyph glyph-name="redo" unicode="&#57366;" d="M270 499l210-210-210-210 0 138c-6 0-16 1-27 1-61 0-162-26-162-201l-19-2c-1 7-31 168 48 271 37 47 90 74 160 81z m183-210l-164 164 0-104-9-1c-68-4-120-29-155-74-36-46-48-108-50-159 34 108 124 122 168 122 22 0 38-3 38-3l8-2 0-108z"/>
<glyph glyph-name="save" unicode="&#57367;" d="M69 66l0 395 297 0 97-92 0-303z m68 17l0 215c0 4 4 8 9 8l240 0c4 0 8-4 8-8l0-215 52 0 0 279-87 81-33 0 0-102-172 0 0 102-68 0 0-360z m240 0l0 206-223 0 0-206z m-206 78c0 4 4 8 9 8l171 0c5 0 9-4 9-8 0-5-4-9-9-9l-171 0c-5 0-9 4-9 9z m0 68c0 5 4 9 9 9l171 0c5 0 9-4 9-9 0-5-4-8-9-8l-171 0c-5 0-9 3-9 8z m138 129l0 85-52 0 0-68-68 0 0 68-18 0 0-85z m-69 34l0 51-34 0 0-51z"/>
<glyph glyph-name="saveas" unicode="&#57368;" d="M249 15l-3 1-4 1-43 50c-3 3-2 9 1 12 4 3 9 3 12-1l28-32 0 100c0 5 4 8 9 8 4 0 8-3 8-8l0-100 28 32c3 4 9 4 12 1 4-3 4-9 1-12l-43-49 0 0 0 0-1-1-2-1 3 2z m-103 103l-77 0 0 360 271 0 89-84 0-276-78 0-60 0 0 17 52 0 0 188-189 0 0-188 56 0 0-17-64 0c0 0 0 0 0 0 0 0 0 0 0 0z m214 17l51 0 0 252-78 74-42 0 0-103-154 0 0 103-51 0 0-326 51 0 0 197c0 5 4 9 9 9l205 0c5 0 9-4 9-9z m-199 77c0 5 4 9 9 9l156 0c4 0 8-4 8-9 0-5-4-9-8-9l-156 0c-5 0-9 4-9 9z m2 51c0 5 4 9 8 9l156 0c5 0 9-4 9-9 0-4-4-8-9-8l-156 0c-4 0-8 4-8 8z m111 112l0 86-32 0 0-69-64 0 0 69-24 0 0-86z m-50 34l0 52-29 0 0-52z"/>
<glyph glyph-name="settings" unicode="&#57370;" d="M277 38l-10 5-17 45-32 4-34-40-11-2-61 38-4 11 23 44-19 22-50-5-9 6-18 73 5 11 49 16 0 28-40 34-2 11 38 60 10 4 50-22 17 17-5 52 6 9 67 18 10-4 22-46 29-5 39 40 11 2 55-37 3-10-16-45 13-23 56 5 9-6 19-67-5-11-51-22-5-27 45-33 2-11-36-62-11-4-50 23-23-18 5-51-6-9z m3 18l53 15-5 47 3 8 31 25 9 1 48-22 28 49-42 32-4 8 7 37 5 6 48 21-14 53-55-5-8 5-18 30-1 8 16 42-43 29-38-38-7-2-38 6-6 5-21 43-54-15 5-48-2-7-24-24-10-2-48 21-29-48 37-32 3-6 0-38-6-8-47-16 15-58 47 5 8-3 25-30 1-9-22-42 49-30 32 38 7 3 43-6 7-6z m-68 102c-13 5-24 13-34 23-10 9-17 21-23 34-6 13-8 27-8 42 0 15 2 29 8 42 6 13 13 24 23 34 10 10 21 17 34 23 13 6 27 9 42 9 15 0 29-3 42-9 13-5 25-13 35-23 9-10 17-21 23-34 5-13 8-27 8-42 0-15-3-29-8-42-6-13-14-25-23-34-10-10-22-18-35-23-13-6-27-9-42-9-15 0-29 3-42 9z m78 15c11 5 20 12 28 20 9 8 15 18 20 29 5 11 7 22 7 35 0 12-2 24-7 35-5 11-11 21-20 29-8 8-17 15-28 19-11 5-23 8-36 8-12 0-24-3-35-8-11-4-21-11-29-19-8-8-14-18-19-29-5-11-7-23-7-35 0-13 2-24 7-35 5-11 11-21 19-29 8-8 18-15 29-20 11-4 23-7 35-7 13 0 25 3 36 7z"/>
<glyph glyph-name="share" unicode="&#57371;" d="M191 72c-30 11-56 28-77 49-11-4-24-4-35 0-29 10-44 40-34 68 10 28 40 43 68 34 28-10 43-40 34-68-4-11-10-19-18-25 19-18 41-32 67-41 53-18 108-10 152 18 4 3 9 1 12-3 2-3 1-9-3-11-48-31-108-40-166-21z m160 78c-6 29 13 57 42 63 11 2 21 1 30-3 7 25 8 52 2 79-10 54-45 98-91 122-5 2-6 7-4 11 2 5 7 6 12 4 50-26 88-74 100-134 6-31 5-62-4-91 9-7 16-18 18-30 6-29-13-58-42-63-29-6-57 13-63 42z m60-26c19 4 32 24 28 43-1 9-6 17-13 22 0 0 0 0-1 0-1 1-3 2-4 3-7 4-16 6-24 4-20-4-33-23-29-43 4-20 23-32 43-29z m-302 14c1 0 1 0 1 0 1 2 3 2 5 3 7 4 13 11 15 19 7 19-3 40-22 46-19 7-40-3-47-22-6-19 4-40 23-47 9-3 18-2 25 1z m-49 108c-2 57 20 114 66 154 24 21 52 35 81 42 2 12 8 23 17 31 22 20 56 17 76-5 19-22 17-56-5-76-23-19-57-17-76 5-7 8-11 18-13 27-24-6-48-19-69-37-42-36-62-89-60-140 1-5-3-9-8-9-5 0-9 3-9 8z m223 159c16 13 17 36 4 52-13 15-37 16-52 3-7-6-11-14-12-22 0 0 0-1 0-1 1-2 1-4 0-5 0-8 3-17 9-23 13-16 36-17 51-4z"/>
<glyph glyph-name="undo" unicode="&#57372;" d="M245 499l-211-210 211-210 0 138c6 0 15 1 26 1 61 0 163-26 163-201l18-2c2 7 32 168-48 271-37 47-90 74-159 81z m-184-210l165 164 0-104 8-1c68-4 120-29 155-74 36-46 48-108 50-159-34 108-124 122-168 122-22 0-37-3-38-3l-7-2 0-108z"/>
<glyph glyph-name="unpin" unicode="&#57373;" d="M465 34l-94 95c-3 3-3 9 0 12 3 3 9 3 12 0l94-94c4-4 4-9 0-13-3-3-8-3-12 0z m-414 34l131 160-77 80 7 6c44 34 73 37 124 23l19-5 83 79-23 25 49 47 119-124-50-47-24 25-83-79 5-16c14-46 20-83-30-127l-6-6-78 82z m244 65l3 2c38 40 27 70 10 123l-1 5 103 98 24-25 24 24-94 99-25-24 24-24-103-99-5 2c-56 18-82 20-116-2l-8-6z m-164 236l-94 94c-4 3-4 9 0 12 3 4 9 4 12 0l94-94c4-3 4-9 0-12-3-4-9-4-12 0z"/>
<glyph glyph-name="unpinbold" unicode="&#57374;" d="M465 34l-94 95c-3 3-3 9 0 12 3 3 9 3 12 0l94-94c4-4 4-9 0-13-3-3-8-3-12 0z m-414 32l137 168-70 73c46 37 73 36 140 15l93 89-24 25 37 35 107-111-38-36-23 25-93-89c17-56 31-92-22-139l-70 74z m80 303l-94 94c-4 3-4 9 0 12 3 4 9 4 12 0l94-94c4-3 4-9 0-12-3-4-9-4-12 0z"/>
<glyph glyph-name="humburger" unicode="&#57375;" d="M86 169l0 17 343 0 0-17z m0 86l0 17 343 0 0-17z m0 86l0 17 343 0 0-17z"/>
<glyph glyph-name="notesbold" unicode="&#57376;" d="M126 30l20 150-27 0c-37 0-68 30-68 67l0 165c0 37 31 67 68 67l277 0c37 0 67-30 67-67l0-165c0-37-30-67-67-67l-176 0z m116 255c7 14 10 36 10 67l0 57-66 0 0-72 32 0c-1-20-4-35-10-46-6-11-16-19-28-24l15-24c21 9 37 23 47 42z m107 0c7 14 11 36 11 67l0 57-67 0 0-72 33 0c-1-20-4-35-11-46-6-11-15-19-27-24l15-24c21 9 36 23 46 42z"/>
<glyph glyph-name="iconfinderbold" unicode="&#57377;" d="M413 50l-117 116c-10 10-12 26-5 38l-34 34c-15-13-33-22-53-28-73-19-148 24-168 97-19 73 24 148 97 168 73 20 149-24 168-97 12-44 1-90-27-123l34-34c12 7 28 5 38-5l116-117c13-12 13-33 0-45l-4-4c-12-13-33-13-45 0z m-218 193c55 15 88 71 73 126-15 55-71 88-126 73-55-15-87-71-73-126 15-55 71-87 126-73z m0 20l-37 38-47-25 14 51-45 29 51 13 2 53 38-37 47 24-14-51 45-28-51-14z"/>
<glyph glyph-name="structurebold" unicode="&#57378;" d="M34 49l0 154 69 0 0 43 8 9 129 0 0 51-86 0 0 155 189 0 0-155-86 0 0-51 129 0 8-9 0-43 69 0 0-154-189 0 0 154 103 0 0 35-257 0 0-35 103 0 0-154z"/>
<glyph glyph-name="search" unicode="&#57379;" d="M451 79l-178 178c20 24 31 54 31 86 0 36-14 70-40 95-25 26-59 40-95 40-36 0-70-14-95-40-26-25-40-59-40-95 0-36 14-70 40-95 25-26 59-40 95-40 32 0 62 11 86 31l178-178c3-2 6-3 9-3 3 0 6 1 9 3 5 5 5 13 0 18z m-360 186c-21 21-32 48-32 78 0 29 11 57 32 78 21 21 49 32 78 32 30 0 57-11 78-32 21-21 32-49 32-78 0-30-11-57-32-78-21-21-48-32-78-32-29 0-57 11-78 32z"/>
<glyph glyph-name="documenttreebold" unicode="&#57369;" d="M324 74c-9 13-14 29-15 44l-60 0c-5 0-9 4-9 8l0 232-35 0c-2-28-17-54-41-70-44-29-102-17-131 26-29 43-17 102 26 131 43 29 102 17 131-26 9-14 14-29 15-44l104 0c2 27 17 53 42 70 43 29 101 17 130-26 29-44 17-102-26-131-43-29-102-17-131 26-9 14-14 29-15 44l-52 0 0-223 52 0c2 27 17 53 42 70 43 29 101 17 130-26 29-44 17-102-26-131-43-29-102-17-131 26z m87 1l0 43 43 0 0 17-43 0 0 43-17 0 0-43-43 0 0-17 43 0 0-43z m0 240l0 43 43 0 0 17-43 0 0 43-17 0 0-43-43 0 0-17 43 0 0-43z m-248 43l0 17-103 0 0-17z"/>
<glyph glyph-name="shapeproperties" unicode="&#57380;" d="M145 7l-11 5-8 22-13 1-16-19-11-2-34 20-3 11 11 22-7 8-25-3-9 7-10 39 6 10 23 8 0 11-20 17-2 11 21 33 10 3 24-11 6 6-2 26 6 9 36 10 10-4 11-23 12-2 20 20 11 1 29-19 3-10-8-23 5-9 28 3 9-6 10-37-5-10-25-11-2-10 22-17 2-11-20-33-11-3-24 11-9-7 2-25-6-10z m3 18l22 6-3 22 3 8 17 14 9 1 23-11 11 20-20 16-3 8 4 20 4 6 23 10-6 22-26-2-8 4-10 17 0 7 7 20-18 12-18-18-8-3-20 4-6 5-10 20-22-6 2-23-3-7-13-13-9-2-23 10-12-20 17-15 3-6 0-21-5-8-22-7 6-25 22 2 7-2 14-16 1-10-10-19 20-13 15 18 8 3 23-3 7-6z m-41 46c-7 4-14 8-20 14-5 5-10 12-13 19-3 8-5 16-5 25 0 8 2 16 5 24 3 7 8 14 14 20 5 5 12 10 19 13 8 3 16 5 24 5 9 0 17-2 25-5 7-3 14-8 19-13 6-6 10-13 14-20 3-8 5-16 5-24 0-9-2-17-5-25-4-7-8-14-14-19-5-6-12-10-19-14-8-3-16-4-25-4-8 0-16 1-24 4z m42 16c5 3 10 6 14 10 4 4 7 9 10 14 2 6 3 11 3 18 0 6-1 12-3 17-3 6-6 10-10 14-4 4-9 8-14 10-6 2-11 4-18 4-6 0-12-2-17-4-6-2-10-6-14-10-4-4-8-8-10-14-2-5-4-11-4-17 0-7 2-13 4-18 2-5 6-10 10-14 4-4 8-7 14-10 5-2 11-3 17-3 7 0 12 1 18 3z m134 99l0 17 214 0 0 292-360 0 0-197-17 0 0 214 394 0 0-326z m17 77c0 5 4 9 9 9l77 0c4 0 8-4 8-9 0-4-4-8-8-8l-77 0c-5 0-9 4-9 8z m-85-3l-26 56c-2 4 0 9 5 11 4 2 9 0 11-4l19-41 34 63c3 4 8 5 12 3 4-2 5-7 3-12l-43-77c-3-6-12-6-15 1z m85 55c0 5 4 8 9 8l128 0c5 0 9-3 9-8 0-5-4-9-9-9l-128 0c-5 0-9 4-9 9z m0 68c0 5 4 9 9 9l77 0c4 0 8-4 8-9 0-4-4-8-8-8l-77 0c-5 0-9 4-9 8z m-85-3l-26 56c-2 4 0 9 5 11 4 2 9 0 11-4l19-41 34 63c3 4 8 5 12 3 4-2 5-7 3-12l-43-77c-3-6-12-6-15 1z m85 55c0 5 4 8 9 8l128 0c5 0 9-3 9-8 0-5-4-9-9-9l-128 0c-5 0-9 4-9 9z"/>
<glyph glyph-name="edittext" unicode="&#57381;" d="M300 58c0 4 4 8 9 8l51 0 0 395-51 0c-5 0-9 3-9 8 0 5 4 9 9 9l120 0c4 0 8-4 8-9 0-5-4-8-8-8l-52 0 0-395 52 0c4 0 8-4 8-8 0-5-4-9-8-9l-120 0c-5 0-9 4-9 9z m-175 75l0 8 10 0c11 0 20 3 24 10 3 5 5 15 5 30l0 211-33 0c-13 0-22-1-28-3-7-3-13-8-18-15-5-7-8-17-9-30l-7 0 3 65 225 0 3-65-8 0c-1 12-3 20-6 25-4 8-10 14-17 17-7 4-16 6-27 6l-39 0 0-211c0-17 2-27 5-32 6-5 14-8 24-8l10 0 0-8z"/>
<glyph glyph-name="ellipsis" unicode="&#57382;" d="M120 252l0 40c0 8 7 14 15 14l39 0c8 0 15-6 15-14l0-40c0-8-7-14-15-14l-39 0c-8 0-15 6-15 14z m103 0l0 40c0 8 6 14 14 14l40 0c8 0 14-6 14-14l0-40c0-8-6-14-14-14l-40 0c-8 0-14 6-14 14z m103 0l0 40c0 8 6 14 14 14l40 0c8 0 14-6 14-14l0-40c0-8-6-14-14-14l-40 0c-8 0-14 6-14 14z m-155 3l0 34-34 0 0-34z m103 0l0 34-34 0 0-34z m103 0l0 34-34 0 0-34z"/>
<glyph glyph-name="home" unicode="&#57383;" d="M86 45l0 231c0 17 13 30 30 30l274 0c16 0 30-13 30-30l0-231c0-17-14-31-30-31l-274 0c-17 0-30 14-30 31z m317 0l0 231c0 7-6 13-13 13l-274 0c-7 0-13-6-13-13l0-231c0-7 6-13 13-13l274 0c7 0 13 5 13 13z m-232 65l0 101c0 15 12 27 27 27l101 0c15 0 27-12 27-27l0-101c0-15-12-27-27-27l-101 0c-15 0-27 12-27 27z m138 0l0 101c0 5-5 10-10 10l-101 0c-5 0-9-5-9-10l0-101c0-5 4-9 9-9l101 0c5 0 10 4 10 9z m-221 225c-3 4-3 9 1 12l154 129c0 0 1 0 1 0 0 1 1 1 1 1 1 0 1 0 2 0 1 1 1 1 2 1 0 0 1 0 1-1 1 0 1 0 2 0 0 0 1 0 1-1 1 0 1 0 1 0l154-129c4-3 4-8 1-12-3-4-8-4-12-1l-148 124-149-124c-4-3-9-3-12 1z"/>
<glyph glyph-name="measures" unicode="&#57384;" d="M17 15l0 492 492-492z m69 17l0 26c0 4 4 8 8 8 5 0 9-4 9-8l0-26 34 0 0 26c0 4 4 8 9 8 4 0 8-4 8-8l0-26 35 0 0 26c0 4 3 8 8 8 5 0 9-4 9-8l0-26 34 0 0 26c0 4 4 8 9 8 4 0 8-4 8-8l0-26 34 0 0 26c0 4 4 8 9 8 5 0 9-4 9-8l0-26 34 0 0 26c0 4 4 8 8 8 5 0 9-4 9-8l0-26 34 0 0 26c0 4 4 8 9 8 5 0 8-4 8-8l0-26 57 0-434 434 0-57 26 0c5 0 9-4 9-8 0-5-4-9-9-9l-26 0 0-34 26 0c5 0 9-4 9-9 0-5-4-8-9-8l-26 0 0-35 26 0c5 0 9-4 9-8 0-5-4-9-9-9l-26 0 0-34 26 0c5 0 9-4 9-9 0-4-4-8-9-8l-26 0 0-35 26 0c5 0 9-3 9-8 0-5-4-9-9-9l-26 0 0-34 26 0c5 0 9-4 9-9 0-4-4-8-9-8l-26 0 0-34 26 0c5 0 9-4 9-9 0-5-4-9-9-9l-26 0 0-51z m0 69l0 252 252-252z m210 17l-193 193 0-193z"/>
<glyph glyph-name="play" unicode="&#57385;" d="M137 68l0 374 299-187z m17 31l250 156-250 156z"/>
<glyph glyph-name="textproperties" unicode="&#57386;" d="M145 15l-11 5-8 22-13 2-17-20-11-2-33 21-3 11 11 21-7 9-25-3-9 6-10 40 5 10 24 8 0 10-20 17-2 11 20 33 11 3 24-10 6 6-2 26 6 9 36 10 10-5 11-22 12-2 19 20 11 1 30-20 3-10-8-23 5-8 28 3 9-7 10-36-5-10-26-11-1-10 22-17 2-11-20-33-11-4-24 12-9-8 2-25-6-9z m75 13l0 13 16 0c19 0 33 5 41 17 5 7 7 23 7 48l0 344-54 0c-21 0-36-2-45-5-11-4-21-12-29-24-8-12-13-28-15-49l-12 0 5 106 367 0 5-106-13 0c-2 19-6 32-10 40-7 13-16 22-27 28-12 6-27 10-45 10l-63 0 0-344c0-27 3-45 9-51 8-10 21-14 38-14l16 0 0-13z m-72 6l21 6-2 22 3 8 17 13 9 1 22-10 12 20-20 15-3 9 3 19 5 7 23 10-6 22-26-3-8 5-10 16-1 8 8 20-18 12-18-19-8-2-20 4-6 4-10 21-23-7 3-23-3-6-13-13-9-2-23 10-12-20 17-15 3-7 0-20-6-8-22-8 7-24 22 2 7-3 14-16 1-9-10-20 20-12 15 18 8 3 23-3 6-6z m-41 46c-7 3-14 8-20 13-5 6-10 12-13 20-3 8-5 16-5 24 0 9 2 17 5 24 3 8 8 14 13 20 6 6 13 10 20 13 8 4 16 5 24 5 9 0 17-1 24-5 8-3 15-7 20-13 6-6 10-12 13-20 4-7 5-15 5-24 0-8-1-16-5-24-3-7-7-14-13-20-5-5-12-10-20-13-7-3-15-5-24-5-8 0-16 2-24 5z m42 16c5 2 10 5 14 9 4 4 7 9 10 15 2 5 3 11 3 17 0 6-1 12-3 18-3 5-6 10-10 14-4 4-9 7-14 10-6 2-12 3-18 3-6 0-12-1-17-3-6-3-10-6-15-10-4-4-7-9-9-14-3-6-4-12-4-18 0-6 1-12 4-17 2-6 5-11 9-15 5-4 9-7 15-9 5-3 11-4 17-4 6 0 12 1 18 4z"/>
<glyph glyph-name="settings2" unicode="&#57387;" d="M399 7l-10 5-8 20-11 2-16-19-11-2-31 20-4 11 11 20-7 7-23-2-9 6-10 37 6 11 22 7 0 9-19 16-2 11 19 31 11 3 23-10 5 6-2 24 6 9 34 10 10-5 10-21 11-2 18 19 11 1 28-19 3-10-7-21 4-7 26 2 9-6 9-35-4-10-24-10-2-9 21-16 2-11-19-31-10-4-24 11-8-7 3-23-6-9z m3 18l20 6-2 20 3 8 16 13 9 1 21-10 10 18-18 14-4 9 4 18 5 7 21 9-6 20-24-2-8 4-9 16-1 7 7 19-16 11-17-17-8-3-19 4-6 5-9 18-21-5 3-22-3-7-12-12-10-2-21 10-11-19 16-13 3-7 0-19-6-8-20-7 6-23 20 3 8-3 12-15 1-10-9-18 19-11 13 16 8 3 22-3 7-5z m-39 43c-7 3-13 7-18 12-6 6-10 12-13 19-3 7-5 15-5 23 0 8 2 16 5 23 3 7 7 14 13 19 5 5 11 10 18 13 8 3 15 4 23 4 9 0 16-1 24-4 7-3 13-8 18-13 6-5 10-12 13-19 3-7 5-15 5-23 0-8-2-16-5-23-3-7-7-13-13-19-5-5-11-9-18-12-8-3-15-5-24-5-8 0-15 2-23 5z m40 16c5 2 9 5 13 9 4 3 7 8 9 13 2 5 4 10 4 16 0 6-2 12-4 17-2 5-5 9-9 13-4 4-8 7-13 9-5 2-11 3-17 3-5 0-11-1-16-3-5-2-9-5-13-9-4-4-7-8-9-13-2-5-3-11-3-17 0-6 1-11 3-16 2-5 5-10 9-13 4-4 8-7 13-9 5-3 11-4 16-4 6 0 12 1 17 4z m-213 89l-10 5-11 30-20 2-22-27-11-1-43 26-4 11 15 30-11 12-33-3-10 6-12 52 5 10 33 11 0 16-28 23-1 11 26 42 11 4 33-15 9 10-3 35 6 9 47 13 10-4 15-31 18-3 26 27 11 1 38-26 4-10-12-30 8-14 38 4 9-6 13-47-5-11-34-15-3-15 30-23 2-11-25-43-11-4-34 16-14-12 4-33-6-10z m3 18l33 9-3 31 3 8 22 17 9 2 31-15 18 30-29 21-3 9 5 25 5 6 31 14-9 33-36-3-8 4-12 22-1 7 10 28-27 18-24-25-8-3-26 5-6 5-14 28-33-9 3-32-3-7-16-17-10-2-31 14-19-30 25-21 3-6 0-26-6-9-31-10 9-36 31 3 8-3 17-21 1-9-14-27 30-19 21 25 8 3 29-4 7-6z m-50 66c-9 4-17 9-24 16-7 7-13 16-17 25-4 9-6 20-6 30 0 11 2 21 6 31 4 9 10 17 17 25 7 7 15 12 24 16 10 4 20 6 31 6 10 0 21-2 30-6 10-4 18-9 25-16 7-8 13-16 17-25 4-10 6-20 6-31 0-10-2-21-6-30-4-9-10-18-17-25-7-7-15-12-25-16-9-5-20-7-30-7-11 0-21 2-31 7z m54 15c8 3 14 8 20 13 5 6 10 12 13 20 3 7 5 15 5 23 0 9-2 17-5 24-3 8-8 14-13 19-6 6-12 10-20 13-7 4-15 5-23 5-9 0-17-1-24-5-7-3-14-7-19-13-6-5-10-11-13-19-3-7-5-15-5-24 0-8 2-16 5-23 3-8 7-14 13-20 5-5 12-10 19-13 7-3 15-4 24-4 8 0 16 1 23 4z"/>
<glyph glyph-name="notes" unicode="&#52;" d="M132 20l22 166-15 0c-39 0-70 32-70 71l0 150c0 39 31 71 70 71l254 0c38 0 70-32 70-71l0-150c0-39-32-71-70-71l-156 0z m27 75l68 108 166 0c29 0 53 24 53 54l0 150c0 30-24 54-53 54l-254 0c-29 0-53-24-53-54l0-150c0-30 24-54 53-54l34 0z m-22 168c0 5 4 9 9 9l240 0c4 0 8-4 8-9 0-4-4-8-8-8l-240 0c-5 0-9 4-9 8z m0 69c0 5 4 9 9 9l240 0c4 0 8-4 8-9 0-5-4-9-8-9l-240 0c-5 0-9 4-9 9z m0 69c0 4 4 8 9 8l240 0c4 0 8-4 8-8 0-5-4-9-8-9l-240 0c-5 0-9 4-9 9z"/>
<glyph glyph-name="options" unicode="&#69;" d="M87 36l-34 51c-3 4-2 10 2 12 4 3 10 2 12-2l26-39 45 89c2 4 7 6 12 4 4-2 5-7 3-11l-51-103c-3-6-11-7-15-1z m204 22c0 4 4 8 9 8l154 0c5 0 9-4 9-8 0-5-4-9-9-9l-154 0c-5 0-9 4-9 9z m-94 51c0 5 4 9 9 9l248 0c5 0 9-4 9-9 0-5-4-8-9-8l-248 0c-5 0-9 3-9 8z m-110 90l-34 51c-3 4-2 9 2 12 4 3 10 2 12-2l26-40 45 90c2 4 7 6 12 4 4-2 5-7 3-12l-51-102c-3-6-11-7-15-1z m204 30c0 5 4 9 9 9l154 0c5 0 9-4 9-9 0-5-4-8-9-8l-154 0c-5 0-9 3-9 8z m-94 52c0 4 4 8 9 8l248 0c5 0 9-4 9-8 0-5-4-9-9-9l-248 0c-5 0-9 4-9 9z m-110 72l-34 51c-3 4-2 10 2 12 4 3 10 2 12-2l26-39 45 89c2 5 7 6 12 4 4-2 5-7 3-11l-51-103c-3-6-11-7-15-1z m204 30c0 5 4 9 9 9l154 0c5 0 9-4 9-9 0-4-4-8-9-8l-154 0c-5 0-9 4-9 8z m-94 52c0 5 4 8 9 8l248 0c5 0 9-3 9-8 0-5-4-9-9-9l-248 0c-5 0-9 4-9 9z"/>
<glyph glyph-name="fillpicker" unicode="&#57388;" d="M51 56c-48 52-45 134 7 182 39 35 93 43 138 24l-13-13c-38 13-82 5-113-24-45-41-48-112-6-157 42-45 112-48 157-6 30 27 41 67 34 104l14 14c13-45 1-97-36-131-52-48-134-45-182 7z m59 29c-1 2-1 5 1 7 17 12 30 16 40 19 5 1 9 2 13 4 4 2 7 4 11 7l153 153-42 42-153-153c-7-7-8-14-11-24-3-10-7-22-19-40-2-2-5-2-7-1-2 2-2 5-1 7 12 16 15 27 18 37 1 4 3 9 5 14 1 4 4 9 9 13l153 154-7 6c-7 8-8 19-1 26 6 7 18 6 25-1l3-3 128 128c18 18 47 18 65 1 17-18 17-47-1-65l-128-128 2-3c8-7 9-19 2-25l0 0c-7-7-18-6-26 1l-7 8-154-153c-9-9-18-11-28-14-9-3-20-6-37-18-2-1-4-1-6 1z m174 187c0 0 0 0 0 0l0 0c0 0 0 0 0 0z"/>
<glyph glyph-name="addshapes" unicode="&#57389;" d="M69 23l0 60-60 0c-5 0-9 4-9 9 0 5 4 9 9 9l60 0 0 60c0 4 3 8 8 8 5 0 9-4 9-8l0-60 60 0c4 0 8-4 8-9 0-5-4-9-8-9l-60 0 0-60c0-4-4-8-9-8-5 0-8 4-8 8z m142 37c-42 37-61 91-56 143l-138 0 0 292 292 0 0-137c46 4 94-10 131-44 71-63 76-171 13-242-63-70-172-76-242-12z m229 24c57 63 52 161-11 218-34 30-78 43-120 38l0-137-137 0c-5-47 12-96 50-131 64-57 161-51 218 12z m-242 218c26 28 59 46 93 53l0 123-257 0 0-257 124 0c5 29 19 57 40 81z m93-81l0 116c-30-6-58-22-80-47-18-20-30-44-36-69z"/>
<glyph glyph-name="addshapes1" unicode="&#57390;" d="M69 23l0 60-60 0c-5 0-9 4-9 9 0 5 4 9 9 9l60 0 0 60c0 4 3 8 8 8 5 0 9-4 9-8l0-60 60 0c4 0 8-4 8-9 0-5-4-9-8-9l-60 0 0-60c0-4-4-8-9-8-5 0-8 4-8 8z m142 37c-33 29-52 68-56 109l17 0c5-36 21-71 50-97 64-57 161-51 218 12 57 63 52 161-11 218-25 22-55 35-86 38l0 18c35-4 69-18 97-44 71-63 76-171 13-242-63-70-172-76-242-12z m-194 143l0 292 292 0 0-292z m274 18l0 257-257 0 0-257z"/>
<glyph glyph-name="angle" unicode="&#57391;" d="M45 84l-8 13 145 324 15-7-139-312 311 0 0-18z m411 16l-62 115 42 4c-8 35-30 72-58 107-11 14-23 27-35 39l-30 26-1 1-24-39-74 108 129-20-24-38 3-2 30-27c13-13 25-26 36-40 28-34 52-74 61-112l0-2 47 4z"/>
<glyph glyph-name="corner" unicode="&#57392;" d="M51 80l0 82c0 165 134 299 299 299l96 0 0-18-96 0c-155 0-281-126-281-281l0-82z m243 127l-61 63-32-31-47 122 120-51-32-31 61-63z"/>
<glyph glyph-name="drawtouch" unicode="&#57393;" d="M246 10c-9 3-17 6-25 11-8 4-16 9-23 15-7 6-14 12-21 19l-1 1c-8 12-16 24-26 37-4 5-8 11-13 17-3 4-24 15-31 23l-16 20-4 3c-2 2-3 4-4 5-2 4-4 8-4 13l0 3c0 4 0 7 2 11 1 3 3 6 5 9 3 3 6 5 9 6 3 2 7 3 11 4l3 0c3 0 7-1 10-2l4-1c2-1 4-2 6-3 4-2 8-5 12-8 5-2 9-6 14-9 4-3 9-7 13-10l10-8 0 237c0 5 0 9 1 13 0 5 2 9 4 13 1 4 4 8 8 10 4 4 9 5 15 5 5 0 10-1 14-4 4-3 7-7 9-11 2-4 3-8 4-13 1-4 1-8 1-13l0-164 2-3 0-1 1 3 0 79c0 4 0 8 1 12 1 5 2 9 4 13 2 3 5 7 9 9 4 3 9 4 14 4 5 0 10-1 14-4 4-2 7-6 9-9 2-4 4-8 5-12 0-5 1-9 1-13l0-79 1-2 1 4 0 57c0 5 1 9 1 13 1 4 3 8 5 12 2 4 5 7 8 9 5 3 9 5 15 5 5 0 10-2 14-4 4-3 6-6 9-10 2-4 3-8 4-12 1-4 1-8 1-13l0-70 2 1 1 2 0 47c0 4 0 8 1 12 1 4 2 8 4 12 2 4 5 7 9 10 4 3 9 5 14 5 5 0 10-2 14-4 4-3 7-6 9-10 2-4 3-8 4-12 1-4 1-8 1-13l0-144c0-22-4-26-10-42-7-17-16-32-29-44-12-13-26-23-42-30-17-7-34-11-53-11-11 0-21 2-31 4z m77 23c14 6 27 14 37 25 10 11 19 24 25 40 6 17 9 17 9 35l0 144c0 4 0 7-1 10 0 2-1 5-2 7-1 1-2 2-3 3-1 1-3 2-5 2-2 0-3-1-4-2-2-1-3-2-4-4-1-2-2-5-2-7-1-3-1-6-1-9l0-49-1-4c-1-2-2-4-3-6-1-2-3-3-4-5-3-2-7-3-10-3-5 0-9 1-13 4-1 1-2 2-2 3-2 1-3 3-3 6-1 1-1 3-1 5l0 69c0 3 0 7-1 10 0 2-1 5-2 6-1 2-2 3-4 4-1 1-2 1-4 1-3 0-4 0-5-1-1-1-2-2-3-4-1-1-2-4-3-6 0-3-1-7-1-10l0-59 0-3c-1-2-2-5-3-7-2-3-3-5-5-7-3-2-6-4-10-4l-1 0c-4 1-7 2-9 4-2 1-3 2-4 4-3 4-4 8-4 13l0 79c0 3-1 6-1 9-1 3-2 5-3 7-1 2-2 3-3 4-1 1-2 1-5 1-2 0-3 0-4-1-2-1-3-2-4-4-1-2-2-4-2-7-1-3-1-6-1-9l0-79c0-4-1-8-4-13-2-3-5-6-8-7-2 0-4-1-7-1-4 0-7 2-10 5-2 2-3 4-5 6-1 3-2 6-3 8l0 2 0 165c0 4 0 7-1 10 0 3-1 6-2 8-2 2-3 4-4 5-1 1-2 1-4 1-3 0-4 0-5-1-1-1-2-3-3-5-1-2-2-4-2-8-1-3-1-6-1-10l0-254-14-7c-3 2-7 5-11 9-4 3-8 6-13 9-4 4-8 7-13 10-4 4-8 7-12 9-4 3-8 5-11 7-3 1-5 2-7 2l-1 1-4 1-1 0-5-2c-2-1-3-2-4-3-1-1-2-2-2-4l-1-4 0-2c0-2 1-3 2-5 1-1 2-3 3-4l1 0 1-2c6-6 12-13 18-20 3-5 25-16 31-24 4-6 9-12 13-17 5-6 9-13 14-19l12-17 19-18c7-5 13-9 20-13 7-4 14-7 22-9 8-2 16-4 26-4 17 0 32 4 46 10z m49 370c-12 1-24 2-36 6-20 7-38 21-56 33l-27 20-8 3c-10 4-19 6-29 2-5-1-12-5-10-11-3 5 2 13 6 16 10 6 24 9 35 8 12-2 21-6 32-11 17-8 33-17 50-25 12-6 26-8 39-9l13 0 5 0c27 3 56 23 74 43l11 13 26-23-12-13c-12-12-25-24-40-33-12-7-24-13-37-17-12-3-24-4-36-2z"/>
<glyph glyph-name="height" unicode="&#57394;" d="M94 66l-25 52 17 0 0 188-17 0 25 52 26-52-17 0 0-188 17 0z m60 0l0 292 292 0 0-292z m275 17l0 258-258 0 0-258z"/>
<glyph glyph-name="position" unicode="&#57396;" d="M154 66l0 292 292 0 0-292z m275 17l0 258-258 0 0-258z m-343 103l0 17-69 0 0 18 69 0 0 17 51-26z m197 189l-26 51 17 0 0 69 17 0 0-69 18 0z"/>
<glyph glyph-name="y" unicode="&#57397;" d="M154 66l0 292 292 0 0-292z m275 17l0 258-258 0 0-258z m-146 292l-26 51 17 0 0 69 17 0 0-69 18 0z"/>
<glyph glyph-name="x" unicode="&#57398;" d="M154 66l0 292 292 0 0-292z m275 17l0 258-258 0 0-258z m-343 103l0 17-69 0 0 18 69 0 0 17 51-26z"/>
<glyph glyph-name="width" unicode="&#57399;" d="M154 66l0 292 292 0 0-292z m275 17l0 258-258 0 0-258z m-223 309l-52 26 52 25 0-17 188 0 0 17 52-25-52-26 0 17-188 0z"/>
<glyph glyph-name="snap" unicode="&#57400;" d="M69 15l0 270 0 9c0 37 11 74 34 106 61 83 178 102 263 44 52-36 80-92 80-150l0-279-99 0 0 270 0 9c0 27-13 54-38 71-40 28-97 18-125-21-8-11-14-24-16-37l0-12 0-280z m360 240l0 39c0 52-26 103-73 136-77 53-184 35-239-40-16-22-26-46-29-71l-2-24 0-40 64 0 0 30 0 9c0 21 7 42 20 60 34 47 101 58 149 25 25-18 41-45 44-73l1-3 0-48z"/>
<glyph glyph-name="size" unicode="&#57401;" d="M94 66l-25 52 17 0 0 188-17 0 25 52 26-52-17 0 0-188 17 0z m60 0l0 292 292 0 0-292z m275 17l0 258-258 0 0-258z m-223 309l-52 26 52 25 0-17 188 0 0 17 52-25-52-26 0 17-188 0z"/>
<glyph glyph-name="shapes" unicode="&#57402;" d="M211 60c-33 29-52 68-56 109l17 0c5-36 21-71 50-97 64-57 161-51 218 12 57 63 52 161-11 218-25 22-55 35-86 38l0 18c35-4 69-18 97-44 71-63 76-171 13-242-63-70-172-76-242-12z m-194 143l0 292 292 0 0-292z m274 18l0 257-257 0 0-257z"/>
<glyph glyph-name="selectonpath" unicode="&#57403;" d="M387 12l-56 123-74-72 0 337 244-243-107 0 54-117z m9 23l29 13-57 126 91 0-185 185 0-255 63 61z m-377 370c-3 4-2 9 1 12 11 8 22 14 33 18 4 2 9-1 11-5 1-5-1-9-5-11-10-4-19-9-28-15-4-3-9-3-12 1z m204 0c-5 1-8 5-8 10 1 4 5 8 10 7 15-2 22 0 26 3 3 3 9 3 12 0 3-3 3-9 0-12-10-10-26-10-40-8z m-35 7c-10 3-21 6-33 8-4 1-7 6-6 10 1 5 5 8 10 7 12-3 23-6 34-8 4-1 7-6 6-10-1-5-6-8-11-7z m-66 13c-11 1-21 2-32 1-5-1-9 3-10 7 0 5 4 9 8 10 12 1 24 1 36-1 5 0 8-4 8-9-1-5-5-8-10-8z"/>
<glyph glyph-name="lockproportions" unicode="&#57404;" d="M94 66l-25 52 17 0 0 188-17 0 25 52 26-52-17 0 0-188 17 0z m95 28l0 150c0 15 12 28 28 28l14 0 0 50c0 18 15 32 32 32l91 0c17 0 32-14 32-32l0-50 15 0c15 0 28-13 28-28l0-150c0-15-13-28-28-28l-184 0c-16 0-28 13-28 28z m137 7l0 47c2 1 5 3 7 5 13 14 13 36 0 49-14 13-35 13-49 0-13-13-13-35 0-49 2-2 5-4 7-5l0-47z m25 171l0 48-85 0 0-48z m-145 120l-52 26 52 25 0-17 188 0 0 17 52-25-52-26 0 17-188 0z"/>
<glyph glyph-name="notouch" unicode="&#57405;" d="M204 10c-9 3-18 6-26 11-8 4-15 9-23 15-7 6-13 12-20 19l-2 1c-8 12-16 24-26 37-4 5-8 11-13 17-3 4-24 15-31 23l-16 20-4 4c-2 1-3 3-4 4-2 4-4 8-4 13l0 3c0 4 0 7 2 11 1 3 3 6 5 9 3 3 6 5 9 6 3 2 7 3 11 4l3 0c3 0 7-1 10-2l4-1c2-1 4-2 6-3 4-2 8-5 13-7 4-3 8-7 13-10 4-3 9-7 13-10l10-8 0 237c0 5 0 9 1 13 0 5 2 9 4 13 2 4 4 8 8 10 4 4 9 5 15 5 5 0 10-1 14-4 4-3 7-7 9-11 2-4 3-8 4-12 1-5 2-9 2-14l0-164 1-3 0-1 1 3 0 79c0 4 0 8 1 13 1 4 2 8 4 12 3 3 5 7 9 9 4 3 9 4 14 4 5 0 10-1 15-4 3-2 6-6 8-9 2-4 4-8 5-12 1-5 1-9 1-13l0-79 1-2 1 4 0 57c0 5 1 9 2 13 0 4 2 8 4 12 2 4 5 7 9 10 4 2 9 4 14 4 5 0 10-2 14-4 4-3 7-6 9-10 2-4 3-8 4-12 1-4 1-8 1-13l0-70 2 1 1 2 0 47c0 4 0 8 1 12 1 4 2 8 4 12 2 4 5 7 9 10 4 3 9 5 14 5 5 0 10-2 14-4 4-3 7-6 9-10 2-4 4-8 4-12 1-4 2-8 2-13l-1-144c0-22-4-26-10-41-7-18-16-33-28-45-12-13-27-23-43-30-16-7-34-11-53-11-11 0-21 2-30 4z m76 23c14 6 27 14 37 25 11 11 19 24 25 40 7 17 9 17 9 35l0 144c0 4 0 7 0 10-1 3-2 5-3 7-1 1-2 3-3 3-1 1-2 2-5 2-2 0-3-1-4-2-2-1-3-2-4-4-1-2-2-5-2-7-1-3-1-6-1-9l0-49-1-4c-1-2-2-4-3-6-1-2-3-3-4-5-3-2-6-3-10-3-5 0-9 1-13 4-1 1-1 2-2 3-2 1-3 3-3 6-1 1-1 3-1 5l0 69c0 3 0 7-1 10 0 2-1 5-2 7-1 1-2 2-4 3 0 1-2 1-4 1-3 0-4 0-5-1-1-1-2-2-3-4-1-1-2-4-3-6 0-3 0-7 0-10l0-59-1-3c-1-2-2-5-3-7-1-2-3-5-5-7-3-2-6-4-10-4l-1 0c-3 1-6 2-9 4-2 1-3 2-4 4-3 4-4 8-4 13l0 79c0 3-1 6-1 9-1 3-2 5-3 7 0 2-2 3-3 4-1 1-2 1-5 1-2 0-3 0-4-1-1-1-3-2-4-4-1-2-1-4-2-7 0-3-1-6-1-9l0-79c0-4-1-8-3-13-3-3-6-6-9-7-2 0-4-1-7-1-3 0-7 2-10 5-2 2-3 4-4 6-2 3-3 6-3 8l-1 2 0 165c0 4 0 7-1 10 0 3-1 6-2 8-1 2-3 4-4 5-1 1-2 1-4 1-2 0-4 0-4-1-2-1-3-3-4-5-1-2-2-4-2-8-1-3-1-6-1-10l0-254-14-7c-3 2-7 5-11 9-4 3-8 6-12 9-5 4-9 7-14 10-4 4-8 7-12 9-4 3-7 5-11 7-3 2-5 2-6 3l-2 0-4 1-1 0-5-2c-2-1-3-2-4-3-1-1-2-2-2-4l-1-4 0-2c0-1 1-3 2-5 1-1 2-3 3-4l1 0 2-2c5-6 11-13 17-20 4-5 25-16 31-24 4-6 9-12 13-17 5-6 9-13 14-19l12-17 19-18c7-5 13-9 20-13 7-4 15-7 22-9 8-2 16-4 26-4 17 0 32 4 46 10z m70 308l-24 24 48 49-48 48 24 24 49-48 48 48 24-24-48-48 48-49-24-24-48 48z"/>
<glyph glyph-name="notouch1" unicode="&#57406;" d="M204 10c-9 3-18 6-26 11-8 4-15 9-23 15-7 6-13 12-20 19l-2 1c-8 12-16 24-26 37-4 5-8 11-13 17-3 4-24 15-31 23l-16 20-4 4c-2 1-3 3-4 4-2 4-4 8-4 13l0 3c0 4 0 7 2 11 1 3 3 6 5 9 3 3 6 5 9 6 3 2 7 3 11 4l3 0c3 0 7-1 10-2l4-1c2-1 4-2 6-3 4-2 8-5 13-7 4-3 8-7 13-10 4-3 9-7 13-10l10-8 0 237c0 5 0 9 1 13 0 5 2 9 4 13 2 4 4 8 8 10 4 4 9 5 15 5 5 0 10-1 14-4 4-3 7-7 9-11 2-4 3-8 4-12 1-5 2-9 2-14l0-164 1-3 0-1 1 3 0 79c0 4 0 8 1 13 1 4 2 8 4 12 3 3 5 7 9 9 4 3 9 4 14 4 5 0 10-1 15-4 3-2 6-6 8-9 2-4 4-8 5-12 1-5 1-9 1-13l0-79 1-2 1 4 0 57c0 5 1 9 2 13 0 4 2 8 4 12 2 4 5 7 9 10 4 2 9 4 14 4 5 0 10-2 14-4 4-3 7-6 9-10 2-4 3-8 4-12 1-4 1-8 1-13l0-70 2 1 1 2 0 47c0 4 0 8 1 12 1 4 2 8 4 12 2 4 5 7 9 10 4 3 9 5 14 5 5 0 10-2 14-4 4-3 7-6 9-10 2-4 4-8 4-12 1-4 2-8 2-13l-1-144c0-22-4-26-10-41-7-18-16-33-28-45-12-13-27-23-43-30-16-7-34-11-53-11-11 0-21 2-30 4z m76 23c14 6 27 14 37 25 11 11 19 24 25 40 7 17 9 17 9 35l0 144c0 4 0 7 0 10-1 3-2 5-3 7-1 1-2 3-3 3-1 1-2 2-5 2-2 0-3-1-4-2-2-1-3-2-4-4-1-2-2-5-2-7-1-3-1-6-1-9l0-49-1-4c-1-2-2-4-3-6-1-2-3-3-4-5-3-2-6-3-10-3-5 0-9 1-13 4-1 1-1 2-2 3-2 1-3 3-3 6-1 1-1 3-1 5l0 69c0 3 0 7-1 10 0 2-1 5-2 7-1 1-2 2-4 3 0 1-2 1-4 1-3 0-4 0-5-1-1-1-2-2-3-4-1-1-2-4-3-6 0-3 0-7 0-10l0-59-1-3c-1-2-2-5-3-7-1-2-3-5-5-7-3-2-6-4-10-4l-1 0c-3 1-6 2-9 4-2 1-3 2-4 4-3 4-4 8-4 13l0 79c0 3-1 6-1 9-1 3-2 5-3 7 0 2-2 3-3 4-1 1-2 1-5 1-2 0-3 0-4-1-1-1-3-2-4-4-1-2-1-4-2-7 0-3-1-6-1-9l0-79c0-4-1-8-3-13-3-3-6-6-9-7-2 0-4-1-7-1-3 0-7 2-10 5-2 2-3 4-4 6-2 3-3 6-3 8l-1 2 0 165c0 4 0 7-1 10 0 3-1 6-2 8-1 2-3 4-4 5-1 1-2 1-4 1-2 0-4 0-4-1-2-1-3-3-4-5-1-2-2-4-2-8-1-3-1-6-1-10l0-254-14-7c-3 2-7 5-11 9-4 3-8 6-12 9-5 4-9 7-14 10-4 4-8 7-12 9-4 3-7 5-11 7-3 2-5 2-6 3l-2 0-4 1-1 0-5-2c-2-1-3-2-4-3-1-1-2-2-2-4l-1-4 0-2c0-1 1-3 2-5 1-1 2-3 3-4l1 0 2-2c5-6 11-13 17-20 4-5 25-16 31-24 4-6 9-12 13-17 5-6 9-13 14-19l12-17 19-18c7-5 13-9 20-13 7-4 15-7 22-9 8-2 16-4 26-4 17 0 32 4 46 10z m47 362c-8 46 23 91 70 99 47 8 91-24 99-70 8-47-24-91-70-99-47-8-91 23-99 70z m95-47c9 1 17 5 24 10l-86 86c-9-13-13-29-10-45 6-34 38-57 72-51z m51 72c-6 34-38 56-72 51-9-2-17-5-25-10l87-87c9 13 13 29 10 46z"/>
<glyph glyph-name="pinpivotpoint" unicode="&#57407;" d="M206 15l0 94c0 5 4 9 8 9 5 0 9-4 9-9l0-94c0-5-4-9-9-9-4 0-8 4-8 9z m-64 169c-15 40 5 84 44 100 7 2 13 4 20 5l0-18c-5 0-9-1-14-3-30-12-46-47-34-78 12-31 47-46 78-34 21 8 35 27 38 47l17 0c-3-27-21-52-49-63-39-15-84 4-100 44z m-133 28c0 5 3 9 8 9l94 0c5 0 9-4 9-9 0-5-4-9-9-9l-94 0c-5 0-8 4-8 9z m300 0c0 5 3 9 8 9l86 0c5 0 8-4 8-9 0-5-3-9-8-9l-86 0c-5 0-8 4-8 9z m-95 2l83 118-50 46c29 27 47 27 92 17l58 63-17 16 23 25 77-69-23-26-17 16-58-64c14-37 25-60-8-94l-50 46z m-8 101l0 94c0 5 4 9 8 9 5 0 9-4 9-9l0-94c0-5-4-9-9-9-4 0-8 4-8 9z"/>
<glyph glyph-name="pivotpoint" unicode="&#57395;" d="M240 41l0 111c0 5 4 9 9 9 4 0 8-4 8-9l0-111c0-5-4-9-8-9-5 0-9 4-9 9z m-63 194c-16 40 4 85 43 100 40 16 85-4 100-44 16-39-4-84-43-99-40-16-85 4-100 43z m93-27c31 12 46 46 34 77-12 31-46 46-77 34-31-12-46-47-34-77 12-31 47-46 77-34z m-253 55c0 5 4 9 9 9l111 0c5 0 9-4 9-9 0-4-4-8-9-8l-111 0c-5 0-9 4-9 8z m334 0c0 5 4 9 9 9l111 0c5 0 9-4 9-9 0-4-4-8-9-8l-111 0c-5 0-9 4-9 8z m-111 112l0 111c0 5 4 9 9 9 4 0 8-4 8-9l0-111c0-5-4-9-8-9-5 0-9 4-9 9z"/>
<glyph glyph-name="lineargradient" unicode="&#57408;" d="M34 32l0 446 446 0 0-446z m429 17l0 412-412 0 0-412z m-390 17l0 386c0 2 2 4 4 4 2 0 4-2 4-4l0-386c0-2-2-4-4-4-2 0-4 2-4 4z m17 0l0 386c0 2 2 4 4 4 3 0 5-2 5-4l0-386c0-2-2-4-5-4-2 0-4 2-4 4z m17 0l0 386c0 2 2 4 4 4 3 0 5-2 5-4l0-386c0-2-2-4-5-4-2 0-4 2-4 4z m17 0l0 386c0 2 2 4 5 4 2 0 4-2 4-4l0-386c0-2-2-4-4-4-3 0-5 2-5 4z m26 0l0 386c0 2 2 4 4 4 3 0 5-2 5-4l0-386c0-2-2-4-5-4-2 0-4 2-4 4z m26 0l0 386c0 2 2 4 4 4 2 0 4-2 4-4l0-386c0-2-2-4-4-4-2 0-4 2-4 4z m25 0l0 386c0 2 2 4 5 4 2 0 4-2 4-4l0-386c0-2-2-4-4-4-3 0-5 2-5 4z m35 0l0 386c0 2 2 4 4 4 2 0 4-2 4-4l0-386c0-2-2-4-4-4-2 0-4 2-4 4z m34 0l0 386c0 2 2 4 4 4 3 0 5-2 5-4l0-386c0-2-2-4-5-4-2 0-4 2-4 4z m51 0l0 386c0 2 2 4 5 4 2 0 4-2 4-4l0-386c0-2-2-4-4-4-3 0-5 2-5 4z m52 0l0 386c0 2 2 4 4 4 2 0 4-2 4-4l0-386c0-2-2-4-4-4-2 0-4 2-4 4z m60 0l0 386c0 2 2 4 4 4 2 0 4-2 4-4l0-386c0-2-2-4-4-4-2 0-4 2-4 4z"/>
<glyph glyph-name="nofill" unicode="&#57409;" d="M34 32l0 446 446 0 0-446z m429 17l0 412-412 0 0-412z m-375 37c-3 3-3 9 0 12l157 157-157 157c-3 3-3 8 0 12 4 3 9 3 12 0l157-157 157 157c3 3 9 3 12 0 3-4 3-9 0-12l-157-157 157-157c3-3 3-9 0-12-3-3-9-3-12 0l-157 157-157-157c-3-3-8-3-12 0z"/>
<glyph glyph-name="paternfill1" unicode="&#57410;" d="M34 32l0 446 446 0 0-446z m429 17l0 412-412 0 0-412z m-406 6c-2 1-2 4 0 6l394 394c2 2 5 2 6 0 2-2 2-4 0-6l-394-394c-2-2-4-2-6 0z m86 0c-2 1-2 4 0 6l308 308c2 2 5 2 6 0 2-1 2-4 0-6l-308-308c-2-2-5-2-6 0z m85 0c-1 1-1 4 0 6l223 223c2 1 5 1 6 0 2-2 2-5 0-6l-223-223c-1-2-4-2-6 0z m103 0c-1 1-1 4 0 6l120 120c2 1 5 1 6 0 2-2 2-5 0-6l-120-120c-1-2-4-2-6 0z m-274 85c-2 2-2 5 0 6l309 309c1 2 4 2 6 0 1-2 1-4 0-6l-309-309c-2-1-4-1-6 0z m0 86c-2 2-2 4 0 6l223 223c1 2 4 2 6 0 2-2 2-4 0-6l-223-223c-2-2-4-2-6 0z m0 103c-2 2-2 4 0 6l120 120c2 2 4 2 6 0 2-2 2-4 0-6l-120-120c-2-2-4-2-6 0z"/>
<glyph glyph-name="patternfill" unicode="&#57411;" d="M34 32l0 446 446 0 0-446z m429 17l0 412-412 0 0-412z m-406 6c-2 1-2 4 0 6l57 57-37 36-14-14c-2-1-4-1-6 0-2 2-2 5 0 6l14 15-14 14c-2 1-2 4 0 6 2 1 4 1 6 0l14-14 45 45-36 37-23-23c-2-2-4-2-6 0-2 2-2 4 0 6l23 23-23 23c-2 1-2 4 0 6 2 1 4 1 6 0l23-23 36 37-45 45-14-14c-2-2-4-2-6 0-2 2-2 4 0 6l14 14-14 14c-2 2-2 5 0 6 2 2 4 2 6 0l14-14 37 37-57 57c-2 2-2 4 0 6 2 2 4 2 6 0l57-57 37 37-14 14c-2 2-2 4 0 6 1 2 4 2 6 0l14-14 14 14c2 2 4 2 6 0 2-2 2-4 0-6l-14-14 45-46 37 37-23 23c-1 2-1 4 0 6 2 2 5 2 6 0l23-23 23 23c1 2 4 2 6 0 2-2 2-4 0-6l-23-23 37-37 45 46-14 14c-1 2-1 4 0 6 2 2 5 2 6 0l14-14 15 14c1 2 4 2 6 0 1-2 1-4 0-6l-15-14 37-37 57 57c2 2 5 2 6 0 2-2 2-4 0-6l-57-57 37-37 14 14c2 2 5 2 6 0 2-1 2-4 0-6l-14-14 14-14c2-2 2-4 0-6-1-2-4-2-6 0l-14 14-45-45 37-37 22 23c2 1 5 1 6 0 2-2 2-5 0-6l-22-23 22-23c2-2 2-4 0-6-1-2-4-2-6 0l-22 23-37-37 45-45 14 14c2 1 5 1 6 0 2-2 2-5 0-6l-14-14 14-15c2-1 2-4 0-6-1-1-4-1-6 0l-14 14-37-36 57-57c2-2 2-5 0-6-1-2-4-2-6 0l-57 57-37-37 15-14c1-2 1-5 0-6-2-2-5-2-6 0l-15 14-14-14c-1-2-4-2-6 0-1 1-1 4 0 6l14 14-45 45-37-37 23-22c2-2 2-5 0-6-2-2-5-2-6 0l-23 22-23-22c-1-2-4-2-6 0-1 1-1 4 0 6l23 22-37 37-45-45 14-14c2-2 2-5 0-6-2-2-4-2-6 0l-14 14-14-14c-2-2-5-2-6 0-2 1-2 4 0 6l14 14-37 37-57-57c-2-2-4-2-6 0z m106 26l45 45-37 37-45-45z m188 0l37 37-45 45-37-37z m-94 8l37 37-37 37-37-37z m137 35l37 37-45 45-37-37z m-274 0l45 45-36 37-46-45z m94 8l37 37-37 37-37-37z m86 0l37 37-37 37-37-37z m43 43l37 37-37 37-37-37z m-172 0l37 37-37 37-36-37z m86 0l37 37-37 37-37-37z m43 43l37 37-37 37-37-37z m-171 0l36 37-36 37-37-37z m85 0l37 37-37 37-37-37z m172 0l36 37-36 37-37-37z m-129 43l37 37-37 36-37-36z m-86 0l37 37-37 36-36-36z m172 0l37 37-37 36-37-36z m-129 43l37 37-37 36-37-36z m-85 0l36 37-45 45-37-37z m171 0l37 37-37 36-37-36z m86 0l45 45-37 37-45-45z m-215 43l37 36-45 46-37-37z m86 0l37 36-37 37-37-37z m86 0l45 45-37 37-45-46z"/>
<glyph glyph-name="radialgradient" unicode="&#57412;" d="M34 255c0 123 100 223 223 223 123 0 223-100 223-223 0-123-100-223-223-223-123 0-223 100-223 223z m429 0c0 113-92 206-206 206-113 0-206-93-206-206 0-114 93-206 206-206 114 0 206 92 206 206z m-399 0c0 106 87 193 193 193 107 0 193-87 193-193 0-107-86-193-193-193-106 0-193 86-193 193z m377 0c0 102-82 184-184 184-102 0-184-82-184-184 0-102 82-184 184-184 102 0 184 82 184 184z m-351 0c0 92 75 167 167 167 92 0 167-75 167-167 0-92-75-167-167-167-92 0-167 75-167 167z m326 0c0 87-71 158-159 158-87 0-158-71-158-158 0-88 71-159 158-159 88 0 159 71 159 159z m-300 0c0 78 63 141 141 141 78 0 142-63 142-141 0-78-64-142-142-142-78 0-141 64-141 142z m274 0c0 73-60 133-133 133-73 0-133-60-133-133 0-74 60-133 133-133 73 0 133 59 133 133z m-249 0c0 64 52 116 116 116 64 0 116-52 116-116 0-64-52-116-116-116-64 0-116 52-116 116z m223 0c0 59-48 107-107 107-59 0-107-48-107-107 0-59 48-107 107-107 59 0 107 48 107 107z m-197 0c0 50 40 90 90 90 50 0 90-40 90-90 0-50-40-90-90-90-50 0-90 40-90 90z m172 0c0 45-37 81-82 81-45 0-81-36-81-81 0-45 36-82 81-82 45 0 82 37 82 82z m-146 0c0 35 29 64 64 64 36 0 64-29 64-64 0-36-28-64-64-64-35 0-64 28-64 64z m120 0c0 31-25 56-56 56-31 0-56-25-56-56 0-31 25-56 56-56 31 0 56 25 56 56z m-94 0c0 21 17 38 38 38 21 0 39-17 39-38 0-21-18-39-39-39-21 0-38 18-38 39z m68 0c0 16-13 30-30 30-16 0-30-14-30-30 0-17 14-30 30-30 17 0 30 13 30 30z m-51 0c0 12 9 21 21 21 12 0 22-9 22-21 0-12-10-22-22-22-12 0-21 10-21 22z m34 0c0 7-6 13-13 13-7 0-13-6-13-13 0-7 6-13 13-13 7 0 13 6 13 13z"/>
</font>
</defs>
</svg>
